<?xml version="1.0" encoding="UTF-8" standalone="no"?>
<!-- Created with Inkscape (http://www.inkscape.org/) -->

<svg
   xmlns:dc="http://purl.org/dc/elements/1.1/"
   xmlns:cc="http://creativecommons.org/ns#"
   xmlns:rdf="http://www.w3.org/1999/02/22-rdf-syntax-ns#"
   xmlns:svg="http://www.w3.org/2000/svg"
   xmlns="http://www.w3.org/2000/svg"
   xmlns:sodipodi="http://sodipodi.sourceforge.net/DTD/sodipodi-0.dtd"
   xmlns:inkscape="http://www.inkscape.org/namespaces/inkscape"
   width="158.90504mm"
   height="298.01212mm"
   viewBox="0 0 563.04937 1055.9484"
   id="svg2"
   version="1.1"
   inkscape:version="0.48.3.1 r9886"
   sodipodi:docname="CassaAlto.svg">
  <defs
     id="defs4" />
  <sodipodi:namedview
     id="base"
     pagecolor="#ffffff"
     bordercolor="#666666"
     borderopacity="1.0"
     inkscape:pageopacity="0.0"
     inkscape:pageshadow="2"
     inkscape:zoom="0.7"
     inkscape:cx="91.098754"
     inkscape:cy="439.59823"
     inkscape:document-units="px"
     inkscape:current-layer="layer1"
     showgrid="false"
     fit-margin-top="0"
     fit-margin-left="0"
     fit-margin-right="0"
     fit-margin-bottom="0"
     inkscape:window-width="1366"
     inkscape:window-height="720"
     inkscape:window-x="0"
     inkscape:window-y="0"
     inkscape:window-maximized="1">
    <inkscape:grid
       type="xygrid"
       id="grid3336"
       originx="2.569667"
       originy="1.507262" />
  </sodipodi:namedview>
  <metadata
     id="metadata7">
    <rdf:RDF>
      <cc:Work
         rdf:about="">
        <dc:format>image/svg+xml</dc:format>
        <dc:type
           rdf:resource="http://purl.org/dc/dcmitype/StillImage" />
        <dc:title></dc:title>
      </cc:Work>
    </rdf:RDF>
  </metadata>
  <g
     inkscape:label="alto"
     inkscape:groupmode="layer"
     id="layer1"
     transform="translate(2.5696671,2.0789517)"
     style="display:inline">
    <path
       style="fill:none;stroke:#ad0000;stroke-width:3.75;stroke-linecap:butt;stroke-linejoin:miter;stroke-miterlimit:4;stroke-opacity:1;stroke-dasharray:none"
       d="M 562.83684,573.84728 C 565.70013,252.36244 360,172.36221 283.85714,13.362132 200,172.36221 1.6949466,252.36227 0.83683777,576.37812 -6.6038616e-8,892.36221 120,1052.3622 281,1053.3622 c 161,1 279,-160.99999 281.83684,-479.51492 z"
       id="path3340-7"
       inkscape:connector-curvature="0"
       sodipodi:nodetypes="scscs" />
    <path
       style="fill:none;stroke:#ad0000;stroke-width:3.75;stroke-linecap:butt;stroke-linejoin:miter;stroke-miterlimit:4;stroke-opacity:1;stroke-dasharray:none;display:inline"
       d="M 283.14286,75.219378 C 225.00546,158.21144 145.06698,225.07881 95.642853,314.34438 47.412255,399.85566 28.813031,499.70901 31.759502,597.3755 c 1.145979,89.79779 12.37046,180.74054 45.051101,264.69324 23.369987,57.41353 59.875927,112.79334 115.363507,143.24426 54.63488,29.8957 124.79843,31.8925 180.0625,2.2188 39.07859,-19.98006 69.37169,-53.58541 91.15625,-91.18742 39.43034,-65.97992 56.57096,-142.73358 66.5625,-218.34375 9.52388,-77.7972 11.016,-157.17729 -1.28125,-234.6875 C 512.57956,375.95795 471.49546,293.84858 413.08564,227.01952 370.55329,175.33449 322.74062,127.52419 285.76786,71.406878 c -0.875,1.27083 -1.75,2.54167 -2.625,3.8125 z"
       id="path3340-7-4"
       inkscape:connector-curvature="0"
       sodipodi:nodetypes="cccccccccccc" />
    <path
       style="fill:none;stroke:#ad0000;stroke-width:3.75;stroke-linecap:butt;stroke-linejoin:miter;stroke-miterlimit:4;stroke-opacity:1;stroke-dasharray:none;display:inline"
       d="m 283.9375,137.09375 c -34.78543,41.07998 -72.43657,79.60923 -105.26333,122.3477 -38.82668,49.47785 -71.76991,104.82264 -88.22693,165.98065 -29.486023,101.33282 -27.676889,209.49701 -9.864311,312.79446 12.89404,69.95266 36.046131,139.66324 79.510821,196.75219 41.80595,48.87564 114.19575,72.20795 175.625,49.96875 56.18356,-19.9647 98.33554,-68.92929 117.289,-124.63422 C 493.59384,758.35044 505.07404,646.8455 501.0625,537.65625 495.51592,441.12076 462.73238,345.25319 402.23613,269.26827 366.6786,221.70406 325.83398,178.91052 284.40625,136.5 z"
       id="path3340-7-4-4"
       inkscape:connector-curvature="0"
       sodipodi:nodetypes="ccccccccccc" />
    <path
       style="fill:none;stroke:#ad0000;stroke-width:3.75;stroke-linecap:butt;stroke-linejoin:miter;stroke-miterlimit:4;stroke-opacity:1;stroke-dasharray:none;display:inline"
       d="m 284.8125,199.125 c -52.49753,59.36825 -107.37831,119.11598 -138.57886,192.90723 -39.60472,95.0844 -43.46749,201.39693 -30.56224,302.59071 8.70141,68.60858 26.76339,137.56544 63.98485,196.31456 14.51458,25.56091 38.81325,45.09723 66.875,54.1875 33.47913,11.51433 72.90343,7.71525 102.0625,-13.09375 C 384.85354,908.04816 407.79,868.50389 420.06896,827.74613 459.93704,708.32449 470.88664,578.19508 445.67488,454.42659 424.45765,368.76109 374.67626,292.44587 313.78226,229.76303 304.26971,219.59306 295.15655,208.38436 284.8125,199.125 z"
       id="path3340-7-4-4-7"
       inkscape:connector-curvature="0"
       sodipodi:nodetypes="cccccccccc" />
    <path
       style="fill:none;stroke:#ad0000;stroke-width:3.75;stroke-linecap:butt;stroke-linejoin:miter;stroke-miterlimit:4;stroke-opacity:1;stroke-dasharray:none;display:inline"
       d="m 281.21875,256.15625 c -47.6208,54.47668 -92.39098,114.58185 -111.41127,185.40444 -31.57516,120.45438 -22.71327,250.5027 19.4749,367.11588 13.02429,32.22469 31.31385,64.88561 61.43637,83.57343 39.43142,18.38269 90.89631,-2.18374 108.42428,-41.69911 29.16707,-47.88467 37.03009,-104.42641 48.54889,-158.29459 16.10254,-97.92063 13.75791,-201.37118 -22.32898,-294.74849 -23.39122,-54.69633 -58.86405,-103.46535 -99.58169,-146.53906 -1.52083,1.72917 -3.04167,3.45833 -4.5625,5.1875 z"
       id="path3340-7-4-4-7-8"
       inkscape:connector-curvature="0"
       sodipodi:nodetypes="ccccccccc" />
    <path
       style="fill:none;stroke:#ad0000;stroke-width:3.75;stroke-linecap:butt;stroke-linejoin:miter;stroke-miterlimit:4;stroke-opacity:1;stroke-dasharray:none;display:inline"
       d="m 285.28125,316.21875 c -54.96955,69.56492 -95.60308,197.7124 -94.90277,270.1639 0.70031,72.4515 3.83318,252.21458 96.52777,254.49235 C 379.60084,843.15277 375.25962,688.30668 378.72,590.44696 382.18038,492.58724 348.06678,392.21127 286.03125,315.25 l -0.61217,0.79072 z"
       id="path3340-7-4-4-7-8-1"
       inkscape:connector-curvature="0"
       sodipodi:nodetypes="czzzccc" />
    <path
       style="fill:none;stroke:#ad0000;stroke-width:3.75;stroke-linecap:butt;stroke-linejoin:miter;stroke-miterlimit:4;stroke-opacity:1;stroke-dasharray:none;display:inline"
       d="m 287,380.9375 c -17.72198,30.5699 -50.00597,141.60901 -49.1116,208.64286 0.89437,67.03385 6.90197,182.95887 49.6116,181.51339 42.70963,-1.44548 49.40747,-113.26451 48.51697,-181.86437 -0.89049,-68.59986 -33.92345,-180.97205 -48.70447,-208.82313 z"
       id="path3340-7-4-4-7-8-1-0"
       inkscape:connector-curvature="0"
       sodipodi:nodetypes="czzzcc" />
    <path
       style="fill:none;stroke:#ad0000;stroke-width:3.75;stroke-linecap:butt;stroke-linejoin:miter;stroke-miterlimit:4;stroke-opacity:1;stroke-dasharray:none;display:inline"
       d="m 287.09375,431.09375 c -15.01002,87.79301 -37.56452,250.82659 -1.40625,255.125 36.15827,4.29841 24.5886,-170.70183 2.25,-253.125 -0.22943,-0.14663 -0.62528,-2.84552 -0.84375,-2 z"
       id="path3340-7-4-4-7-8-1-0-7"
       inkscape:connector-curvature="0"
       sodipodi:nodetypes="czcc" />
  </g>
  <g
     inkscape:groupmode="layer"
     id="layer2"
     inkscape:label="lato"
     style="display:none">
    <path
       style="fill:none;fill-rule:evenodd;stroke:#000097;stroke-width:4;stroke-linecap:butt;stroke-linejoin:miter;stroke-miterlimit:4;stroke-dasharray:none;stroke-opacity:1"
       d="M 283.80263,14.693701 C 802.56967,454.44116 442.56967,1054.4412 278.27652,1054.4411 202.56967,1054.4411 82.569667,814.44116 86.048332,462.57631 82.569667,294.44116 242.56967,254.44116 283.80263,14.693701 Z"
       id="path4179"
       inkscape:connector-curvature="0"
       sodipodi:nodetypes="cscc" />
  </g>
  <g
     inkscape:groupmode="layer"
     id="layer3"
     inkscape:label="fondo"
     style="display:none">
    <path
       style="fill:none;fill-rule:evenodd;stroke:#00b500;stroke-width:4;stroke-linecap:butt;stroke-linejoin:miter;stroke-miterlimit:4;stroke-dasharray:none;stroke-opacity:1"
       d="m 2.569667,534.44116 c 280.000003,-160 560.000003,0 560.000003,0 0,0 -40,160 -280,160 -240.000003,0 -280.000003,-160 -280.000003,-160 z"
       id="path4182"
       inkscape:connector-curvature="0" />
  </g>
</svg>
