  0
SECTION
  2
HEADER
  9
$ACADVER
  1
AC1014
  9
$HANDSEED
  5
FFFF
  9
$MEASUREMENT
 70
     1
  0
ENDSEC
  0
SECTION
  2
TABLES
  0
TABLE
  2
VPORT
  5
8
330
0
100
AcDbSymbolTable
 70
     4
  0
VPORT
  5
2E
330
8
100
AcDbSymbolTableRecord
100
AcDbViewportTableRecord
  2
*ACTIVE
 70
     0
 10
0.0
 20
0.0
 11
1.0
 21
1.0
 12
210.0
 22
148.5
 13
0.0
 23
0.0
 14
10.0
 24
10.0
 15
10.0
 25
10.0
 16
0.0
 26
0.0
 36
1.0
 17
0.0
 27
0.0
 37
0.0
 40
341.0
 41
1.24
 42
50.0
 43
0.0
 44
0.0
 50
0.0
 51
0.0
 71
     0
 72
   100
 73
     1
 74
     3
 75
     0
 76
     0
 77
     0
 78
     0
  0
ENDTAB
  0
TABLE
  2
LTYPE
  5
5
330
0
100
AcDbSymbolTable
 70
     1
  0
LTYPE
  5
14
330
5
100
AcDbSymbolTableRecord
100
AcDbLinetypeTableRecord
  2
BYBLOCK
 70
     0
  3

 72
    65
 73
     0
 40
0.0
  0
LTYPE
  5
15
330
5
100
AcDbSymbolTableRecord
100
AcDbLinetypeTableRecord
  2
BYLAYER
 70
     0
  3

 72
    65
 73
     0
 40
0.0
  0
LTYPE
  5
16
330
5
100
AcDbSymbolTableRecord
100
AcDbLinetypeTableRecord
  2
CONTINUOUS
 70
     0
  3
Solid line
 72
    65
 73
     0
 40
0.0
  0
ENDTAB
  0
TABLE
  2
LAYER
  5
2
100
AcDbSymbolTable
 70
4
  0
LAYER
  5
50
100
AcDbSymbolTableRecord
100
AcDbLayerTableRecord
  2
0
 70
0
  6
CONTINUOUS
  0
LAYER
  5
51
100
AcDbSymbolTableRecord
100
AcDbLayerTableRecord
  2
alto
 70
0
  6
CONTINUOUS
  0
LAYER
  5
52
100
AcDbSymbolTableRecord
100
AcDbLayerTableRecord
  2
lato
 70
0
  6
CONTINUOUS
  0
LAYER
  5
53
100
AcDbSymbolTableRecord
100
AcDbLayerTableRecord
  2
fondo
 70
0
  6
CONTINUOUS
  0
ENDTAB
  0
TABLE
  2
STYLE
  5
3
330
0
100
AcDbSymbolTable
 70
     1
  0
STYLE
  5
11
330
3
100
AcDbSymbolTableRecord
100
AcDbTextStyleTableRecord
  2
STANDARD
 70
     0
 40
0.0
 41
1.0
 50
0.0
 71
     0
 42
2.5
  3
txt
  4

  0
ENDTAB
  0
TABLE
  2
VIEW
  5
6
330
0
100
AcDbSymbolTable
 70
     0
  0
ENDTAB
  0
TABLE
  2
UCS
  5
7
330
0
100
AcDbSymbolTable
 70
     0
  0
ENDTAB
  0
TABLE
  2
APPID
  5
9
330
0
100
AcDbSymbolTable
 70
     2
  0
APPID
  5
12
330
9
100
AcDbSymbolTableRecord
100
AcDbRegAppTableRecord
  2
ACAD
 70
     0
  0
ENDTAB
  0
TABLE
  2
DIMSTYLE
  5
A
330
0
100
AcDbSymbolTable
 70
     1
  0
DIMSTYLE
105
27
330
A
100
AcDbSymbolTableRecord
100
AcDbDimStyleTableRecord
  2
ISO-25
 70
     0
  3

  4

  5

  6

  7

 40
1.0
 41
2.5
 42
0.625
 43
3.75
 44
1.25
 45
0.0
 46
0.0
 47
0.0
 48
0.0
140
2.5
141
2.5
142
0.0
143
0.03937007874016
144
1.0
145
0.0
146
1.0
147
0.625
 71
     0
 72
     0
 73
     0
 74
     0
 75
     0
 76
     0
 77
     1
 78
     8
170
     0
171
     3
172
     1
173
     0
174
     0
175
     0
176
     0
177
     0
178
     0
270
     2
271
     2
272
     2
273
     2
274
     3
340
11
275
     0
280
     0
281
     0
282
     0
283
     0
284
     8
285
     0
286
     0
287
     3
288
     0
  0
ENDTAB
  0
TABLE
  2
BLOCK_RECORD
  5
1
330
0
100
AcDbSymbolTable
 70
     1
  0
BLOCK_RECORD
  5
1F
330
1
100
AcDbSymbolTableRecord
100
AcDbBlockTableRecord
  2
*MODEL_SPACE
  0
BLOCK_RECORD
  5
1B
330
1
100
AcDbSymbolTableRecord
100
AcDbBlockTableRecord
  2
*PAPER_SPACE
  0
ENDTAB
  0
ENDSEC
  0
SECTION
  2
BLOCKS
  0
BLOCK
  5
20
330
1F
100
AcDbEntity
  8
0
100
AcDbBlockBegin
  2
*MODEL_SPACE
 70
     0
 10
0.0
 20
0.0
 30
0.0
  3
*MODEL_SPACE
  1

  0
ENDBLK
  5
21
330
1F
100
AcDbEntity
  8
0
100
AcDbBlockEnd
  0
BLOCK
  5
1C
330
1B
100
AcDbEntity
 67
     1
  8
0
100
AcDbBlockBegin
  2
*PAPER_SPACE
  1

  0
ENDBLK
  5
1D
330
1B
100
AcDbEntity
 67
     1
  8
0
100
AcDbBlockEnd
  0
ENDSEC
  0
SECTION
  2
ENTITIES
  0
SPLINE
  5
100
100
AcDbEntity
  8
alto
 62
1
100
AcDbSpline
 70
8
 71
3
 72
8
 73
4
 74
0
 40
0
 40
0
 40
0
 40
0
 40
1
 40
1
 40
1
 40
1
 10
159.570281
 20
135.472939
 30
0.0
 10
160.378365
 20
226.203105
 30
0.0
 10
102.325217
 20
248.780948
 30
0.0
 10
80.836010
 20
293.654303
 30
0.0
  0
SPLINE
  5
101
100
AcDbEntity
  8
alto
 62
1
100
AcDbSpline
 70
8
 71
3
 72
8
 73
4
 74
0
 40
0
 40
0
 40
0
 40
0
 40
1
 40
1
 40
1
 40
1
 10
80.836010
 20
293.654303
 30
0.0
 10
57.169662
 20
248.780948
 30
0.0
 10
1.203569
 20
226.203153
 30
0.0
 10
0.961391
 20
134.758680
 30
0.0
  0
SPLINE
  5
102
100
AcDbEntity
  8
alto
 62
1
100
AcDbSpline
 70
8
 71
3
 72
8
 73
4
 74
0
 40
0
 40
0
 40
0
 40
0
 40
1
 40
1
 40
1
 40
1
 10
0.961391
 20
134.758680
 30
0.0
 10
0.725217
 20
45.580948
 30
0.0
 10
34.591884
 20
0.425395
 30
0.0
 10
80.029662
 20
0.143173
 30
0.0
  0
SPLINE
  5
103
100
AcDbEntity
  8
alto
 62
1
100
AcDbSpline
 70
8
 71
3
 72
8
 73
4
 74
0
 40
0
 40
0
 40
0
 40
0
 40
1
 40
1
 40
1
 40
1
 10
80.029662
 20
0.143173
 30
0.0
 10
125.467439
 20
-0.139049
 30
0.0
 10
158.769662
 20
45.580948
 30
0.0
 10
159.570281
 20
135.472939
 30
0.0
  0
SPLINE
  5
104
100
AcDbEntity
  8
alto
 62
1
100
AcDbSpline
 70
8
 71
3
 72
8
 73
4
 74
0
 40
0
 40
0
 40
0
 40
0
 40
1
 40
1
 40
1
 40
1
 10
80.634424
 20
276.196814
 30
0.0
 10
64.226758
 20
252.774609
 30
0.0
 10
41.666343
 20
233.903152
 30
0.0
 10
27.717756
 20
208.710424
 30
0.0
  0
SPLINE
  5
105
100
AcDbEntity
  8
alto
 62
1
100
AcDbSpline
 70
8
 71
3
 72
8
 73
4
 74
0
 40
0
 40
0
 40
0
 40
0
 40
1
 40
1
 40
1
 40
1
 10
27.717756
 20
208.710424
 30
0.0
 10
14.106009
 20
184.577241
 30
0.0
 10
8.856895
 20
156.396406
 30
0.0
 10
9.688454
 20
128.832753
 30
0.0
  0
SPLINE
  5
106
100
AcDbEntity
  8
alto
 62
1
100
AcDbSpline
 70
8
 71
3
 72
8
 73
4
 74
0
 40
0
 40
0
 40
0
 40
0
 40
1
 40
1
 40
1
 40
1
 10
9.688454
 20
128.832753
 30
0.0
 10
10.011875
 20
103.489821
 30
0.0
 10
13.179673
 20
77.823756
 30
0.0
 10
22.402876
 20
54.130438
 30
0.0
  0
SPLINE
  5
107
100
AcDbEntity
  8
alto
 62
1
100
AcDbSpline
 70
8
 71
3
 72
8
 73
4
 74
0
 40
0
 40
0
 40
0
 40
0
 40
1
 40
1
 40
1
 40
1
 10
22.402876
 20
54.130438
 30
0.0
 10
28.998406
 20
37.927064
 30
0.0
 10
39.301193
 20
22.297651
 30
0.0
 10
54.961022
 20
13.703725
 30
0.0
  0
SPLINE
  5
108
100
AcDbEntity
  8
alto
 62
1
100
AcDbSpline
 70
8
 71
3
 72
8
 73
4
 74
0
 40
0
 40
0
 40
0
 40
0
 40
1
 40
1
 40
1
 40
1
 10
54.961022
 20
13.703725
 30
0.0
 10
70.380199
 20
5.266494
 30
0.0
 10
90.181912
 20
4.702953
 30
0.0
 10
105.778660
 20
13.077530
 30
0.0
  0
SPLINE
  5
109
100
AcDbEntity
  8
alto
 62
1
100
AcDbSpline
 70
8
 71
3
 72
8
 73
4
 74
0
 40
0
 40
0
 40
0
 40
0
 40
1
 40
1
 40
1
 40
1
 10
105.778660
 20
13.077530
 30
0.0
 10
116.807507
 20
18.716347
 30
0.0
 10
125.356893
 20
28.200524
 30
0.0
 10
131.504980
 20
38.812646
 30
0.0
  0
SPLINE
  5
10a
100
AcDbEntity
  8
alto
 62
1
100
AcDbSpline
 70
8
 71
3
 72
8
 73
4
 74
0
 40
0
 40
0
 40
0
 40
0
 40
1
 40
1
 40
1
 40
1
 10
131.504980
 20
38.812646
 30
0.0
 10
142.633098
 20
57.433646
 30
0.0
 10
147.470562
 20
79.095235
 30
0.0
 10
150.290397
 20
100.434105
 30
0.0
  0
SPLINE
  5
10b
100
AcDbEntity
  8
alto
 62
1
100
AcDbSpline
 70
8
 71
3
 72
8
 73
4
 74
0
 40
0
 40
0
 40
0
 40
0
 40
1
 40
1
 40
1
 40
1
 10
150.290397
 20
100.434105
 30
0.0
 10
152.978247
 20
122.390203
 30
0.0
 10
153.399357
 20
144.793029
 30
0.0
 10
149.928799
 20
166.668132
 30
0.0
  0
SPLINE
  5
10c
100
AcDbEntity
  8
alto
 62
1
100
AcDbSpline
 70
8
 71
3
 72
8
 73
4
 74
0
 40
0
 40
0
 40
0
 40
0
 40
1
 40
1
 40
1
 40
1
 10
149.928799
 20
166.668132
 30
0.0
 10
145.386560
 20
191.321706
 30
0.0
 10
133.791714
 20
214.494794
 30
0.0
 10
117.307164
 20
233.355440
 30
0.0
  0
SPLINE
  5
10d
100
AcDbEntity
  8
alto
 62
1
100
AcDbSpline
 70
8
 71
3
 72
8
 73
4
 74
0
 40
0
 40
0
 40
0
 40
0
 40
1
 40
1
 40
1
 40
1
 10
117.307164
 20
233.355440
 30
0.0
 10
105.303590
 20
247.942104
 30
0.0
 10
91.809792
 20
261.435233
 30
0.0
 10
81.375258
 20
277.272786
 30
0.0
  0
SPLINE
  5
10e
100
AcDbEntity
  8
alto
 62
1
100
AcDbSpline
 70
8
 71
3
 72
8
 73
4
 74
0
 40
0
 40
0
 40
0
 40
0
 40
1
 40
1
 40
1
 40
1
 10
81.375258
 20
277.272786
 30
0.0
 10
81.128313
 20
276.914129
 30
0.0
 10
80.881369
 20
276.555470
 30
0.0
 10
80.634424
 20
276.196814
 30
0.0
  0
LWPOLYLINE
  5
10f
100
AcDbEntity
  8
alto
 62
1
100
AcDbPolyline
 90
2
 70
1
 10
159.570281
 20
135.472939
 30
0.0
 10
159.570281
 20
135.472939
 30
0.0
  0
SPLINE
  5
110
100
AcDbEntity
  8
alto
 62
1
100
AcDbSpline
 70
8
 71
3
 72
8
 73
4
 74
0
 40
0
 40
0
 40
0
 40
0
 40
1
 40
1
 40
1
 40
1
 10
80.858689
 20
258.734491
 30
0.0
 10
71.041468
 20
247.140808
 30
0.0
 10
60.415480
 20
236.266997
 30
0.0
 10
51.151038
 20
224.205251
 30
0.0
  0
SPLINE
  5
111
100
AcDbEntity
  8
alto
 62
1
100
AcDbSpline
 70
8
 71
3
 72
8
 73
4
 74
0
 40
0
 40
0
 40
0
 40
0
 40
1
 40
1
 40
1
 40
1
 10
51.151038
 20
224.205251
 30
0.0
 10
40.193287
 20
210.241502
 30
0.0
 10
30.895975
 20
194.621973
 30
0.0
 10
26.251438
 20
177.361823
 30
0.0
  0
SPLINE
  5
112
100
AcDbEntity
  8
alto
 62
1
100
AcDbSpline
 70
8
 71
3
 72
8
 73
4
 74
0
 40
0
 40
0
 40
0
 40
0
 40
1
 40
1
 40
1
 40
1
 10
26.251438
 20
177.361823
 30
0.0
 10
17.929827
 20
148.763450
 30
0.0
 10
18.440405
 20
118.237111
 30
0.0
 10
23.467510
 20
89.084276
 30
0.0
  0
SPLINE
  5
113
100
AcDbEntity
  8
alto
 62
1
100
AcDbSpline
 70
8
 71
3
 72
8
 73
4
 74
0
 40
0
 40
0
 40
0
 40
0
 40
1
 40
1
 40
1
 40
1
 10
23.467510
 20
89.084276
 30
0.0
 10
27.106495
 20
69.342080
 30
0.0
 10
33.640530
 20
49.668206
 30
0.0
 10
45.907231
 20
33.556435
 30
0.0
  0
SPLINE
  5
114
100
AcDbEntity
  8
alto
 62
1
100
AcDbSpline
 70
8
 71
3
 72
8
 73
4
 74
0
 40
0
 40
0
 40
0
 40
0
 40
1
 40
1
 40
1
 40
1
 10
45.907231
 20
33.556435
 30
0.0
 10
57.705799
 20
19.762644
 30
0.0
 10
78.135809
 20
13.177747
 30
0.0
 10
95.472509
 20
19.454144
 30
0.0
  0
SPLINE
  5
115
100
AcDbEntity
  8
alto
 62
1
100
AcDbSpline
 70
8
 71
3
 72
8
 73
4
 74
0
 40
0
 40
0
 40
0
 40
0
 40
1
 40
1
 40
1
 40
1
 10
95.472509
 20
19.454144
 30
0.0
 10
111.328758
 20
25.088626
 30
0.0
 10
123.224983
 20
38.907521
 30
0.0
 10
128.574071
 20
54.628690
 30
0.0
  0
SPLINE
  5
116
100
AcDbEntity
  8
alto
 62
1
100
AcDbSpline
 70
8
 71
3
 72
8
 73
4
 74
0
 40
0
 40
0
 40
0
 40
0
 40
1
 40
1
 40
1
 40
1
 10
128.574071
 20
54.628690
 30
0.0
 10
140.028368
 20
83.402047
 30
0.0
 10
143.268335
 20
114.871219
 30
0.0
 10
142.136189
 20
145.686852
 30
0.0
  0
SPLINE
  5
117
100
AcDbEntity
  8
alto
 62
1
100
AcDbSpline
 70
8
 71
3
 72
8
 73
4
 74
0
 40
0
 40
0
 40
0
 40
0
 40
1
 40
1
 40
1
 40
1
 10
142.136189
 20
145.686852
 30
0.0
 10
140.570821
 20
172.931312
 30
0.0
 10
131.318578
 20
199.987271
 30
0.0
 10
114.245192
 20
221.431904
 30
0.0
  0
SPLINE
  5
118
100
AcDbEntity
  8
alto
 62
1
100
AcDbSpline
 70
8
 71
3
 72
8
 73
4
 74
0
 40
0
 40
0
 40
0
 40
0
 40
1
 40
1
 40
1
 40
1
 10
114.245192
 20
221.431904
 30
0.0
 10
104.210066
 20
234.855581
 30
0.0
 10
92.682807
 20
246.932869
 30
0.0
 10
80.990981
 20
258.902060
 30
0.0
  0
LWPOLYLINE
  5
119
100
AcDbEntity
  8
alto
 62
1
100
AcDbPolyline
 90
2
 70
1
 10
80.634424
 20
276.196814
 30
0.0
 10
80.634424
 20
276.196814
 30
0.0
  0
SPLINE
  5
11a
100
AcDbEntity
  8
alto
 62
1
100
AcDbSpline
 70
8
 71
3
 72
8
 73
4
 74
0
 40
0
 40
0
 40
0
 40
0
 40
1
 40
1
 40
1
 40
1
 10
81.105634
 20
241.227894
 30
0.0
 10
61.048394
 20
227.295076
 30
0.0
 10
50.801089
 20
207.610717
 30
0.0
 10
41.995600
 20
186.785186
 30
0.0
  0
SPLINE
  5
11b
100
AcDbEntity
  8
alto
 62
1
100
AcDbSpline
 70
8
 71
3
 72
8
 73
4
 74
0
 40
0
 40
0
 40
0
 40
0
 40
1
 40
1
 40
1
 40
1
 10
41.995600
 20
186.785186
 30
0.0
 10
30.818268
 20
159.950256
 30
0.0
 10
29.728108
 20
129.946497
 30
0.0
 10
33.370257
 20
101.387364
 30
0.0
  0
SPLINE
  5
11c
100
AcDbEntity
  8
alto
 62
1
100
AcDbSpline
 70
8
 71
3
 72
8
 73
4
 74
0
 40
0
 40
0
 40
0
 40
0
 40
1
 40
1
 40
1
 40
1
 10
33.370257
 20
101.387364
 30
0.0
 10
35.825988
 20
82.024498
 30
0.0
 10
40.923480
 20
62.563340
 30
0.0
 10
51.428203
 20
45.983033
 30
0.0
  0
SPLINE
  5
11d
100
AcDbEntity
  8
alto
 62
1
100
AcDbSpline
 70
8
 71
3
 72
8
 73
4
 74
0
 40
0
 40
0
 40
0
 40
0
 40
1
 40
1
 40
1
 40
1
 10
51.428203
 20
45.983033
 30
0.0
 10
55.524540
 20
38.769176
 30
0.0
 10
62.382165
 20
33.255592
 30
0.0
 10
70.301814
 20
30.690116
 30
0.0
  0
SPLINE
  5
11e
100
AcDbEntity
  8
alto
 62
1
100
AcDbSpline
 70
8
 71
3
 72
8
 73
4
 74
0
 40
0
 40
0
 40
0
 40
0
 40
1
 40
1
 40
1
 40
1
 10
70.301814
 20
30.690116
 30
0.0
 10
79.750369
 20
27.440516
 30
0.0
 10
90.876782
 20
28.512701
 30
0.0
 10
99.106120
 20
34.385463
 30
0.0
  0
SPLINE
  5
11f
100
AcDbEntity
  8
alto
 62
1
100
AcDbSpline
 70
8
 71
3
 72
8
 73
4
 74
0
 40
0
 40
0
 40
0
 40
0
 40
1
 40
1
 40
1
 40
1
 10
99.106120
 20
34.385463
 30
0.0
 10
109.339438
 20
41.154024
 30
0.0
 10
115.812617
 20
52.314296
 30
0.0
 10
119.278013
 20
63.817041
 30
0.0
  0
SPLINE
  5
120
100
AcDbEntity
  8
alto
 62
1
100
AcDbSpline
 70
8
 71
3
 72
8
 73
4
 74
0
 40
0
 40
0
 40
0
 40
0
 40
1
 40
1
 40
1
 40
1
 10
119.278013
 20
63.817041
 30
0.0
 10
130.529671
 20
97.520482
 30
0.0
 10
134.612783
 20
137.117389
 30
0.0
 10
126.504572
 20
169.176112
 30
0.0
  0
SPLINE
  5
121
100
AcDbEntity
  8
alto
 62
1
100
AcDbSpline
 70
8
 71
3
 72
8
 73
4
 74
0
 40
0
 40
0
 40
0
 40
0
 40
1
 40
1
 40
1
 40
1
 10
126.504572
 20
169.176112
 30
0.0
 10
118.396362
 20
201.234834
 30
0.0
 10
104.359235
 20
227.323070
 30
0.0
 10
81.105634
 20
241.227894
 30
0.0
  0
LWPOLYLINE
  5
122
100
AcDbEntity
  8
alto
 62
1
100
AcDbPolyline
 90
2
 70
1
 10
80.990981
 20
258.902060
 30
0.0
 10
80.858689
 20
258.734491
 30
0.0
  0
SPLINE
  5
123
100
AcDbEntity
  8
alto
 62
1
100
AcDbSpline
 70
8
 71
3
 72
8
 73
4
 74
0
 40
0
 40
0
 40
0
 40
0
 40
1
 40
1
 40
1
 40
1
 10
48.648662
 20
172.807154
 30
0.0
 10
39.737450
 20
138.812252
 30
0.0
 10
42.238472
 20
102.109726
 30
0.0
 10
54.144911
 20
69.198895
 30
0.0
  0
SPLINE
  5
124
100
AcDbEntity
  8
alto
 62
1
100
AcDbSpline
 70
8
 71
3
 72
8
 73
4
 74
0
 40
0
 40
0
 40
0
 40
0
 40
1
 40
1
 40
1
 40
1
 10
54.144911
 20
69.198895
 30
0.0
 10
57.820655
 20
60.104371
 30
0.0
 10
62.982375
 20
50.886734
 30
0.0
 10
71.483620
 20
45.612616
 30
0.0
  0
SPLINE
  5
125
100
AcDbEntity
  8
alto
 62
1
100
AcDbSpline
 70
8
 71
3
 72
8
 73
4
 74
0
 40
0
 40
0
 40
0
 40
0
 40
1
 40
1
 40
1
 40
1
 10
71.483620
 20
45.612616
 30
0.0
 10
82.612043
 20
40.424612
 30
0.0
 10
97.136579
 20
46.228916
 30
0.0
 10
102.083361
 20
57.381031
 30
0.0
  0
SPLINE
  5
126
100
AcDbEntity
  8
alto
 62
1
100
AcDbSpline
 70
8
 71
3
 72
8
 73
4
 74
0
 40
0
 40
0
 40
0
 40
0
 40
1
 40
1
 40
1
 40
1
 10
102.083361
 20
57.381031
 30
0.0
 10
110.314956
 20
70.895149
 30
0.0
 10
112.534075
 20
86.852485
 30
0.0
 10
115.784937
 20
102.055282
 30
0.0
  0
SPLINE
  5
127
100
AcDbEntity
  8
alto
 62
1
100
AcDbSpline
 70
8
 71
3
 72
8
 73
4
 74
0
 40
0
 40
0
 40
0
 40
0
 40
1
 40
1
 40
1
 40
1
 10
115.784937
 20
102.055282
 30
0.0
 10
120.329431
 20
129.690660
 30
0.0
 10
119.738043
 20
156.621292
 30
0.0
 10
113.514947
 20
175.563667
 30
0.0
  0
SPLINE
  5
128
100
AcDbEntity
  8
alto
 62
1
100
AcDbSpline
 70
8
 71
3
 72
8
 73
4
 74
0
 40
0
 40
0
 40
0
 40
0
 40
1
 40
1
 40
1
 40
1
 10
113.514947
 20
175.563667
 30
0.0
 10
107.291854
 20
194.506039
 30
0.0
 10
101.569003
 20
216.415565
 30
0.0
 10
81.379037
 20
226.596435
 30
0.0
  0
SPLINE
  5
129
100
AcDbEntity
  8
alto
 62
1
100
AcDbSpline
 70
8
 71
3
 72
8
 73
4
 74
0
 40
0
 40
0
 40
0
 40
0
 40
1
 40
1
 40
1
 40
1
 10
81.379037
 20
226.596435
 30
0.0
 10
61.034342
 20
214.896193
 30
0.0
 10
53.702824
 20
190.626042
 30
0.0
 10
48.648662
 20
172.807154
 30
0.0
  0
LWPOLYLINE
  5
12a
100
AcDbEntity
  8
alto
 62
1
100
AcDbPolyline
 90
2
 70
1
 10
81.105634
 20
241.227894
 30
0.0
 10
81.105634
 20
241.227894
 30
0.0
  0
SPLINE
  5
12b
100
AcDbEntity
  8
alto
 62
1
100
AcDbSpline
 70
8
 71
3
 72
8
 73
4
 74
0
 40
0
 40
0
 40
0
 40
0
 40
1
 40
1
 40
1
 40
1
 10
82.044274
 20
204.552865
 30
0.0
 10
42.642620
 20
205.680791
 30
0.0
 10
45.399409
 20
54.060069
 30
0.0
 10
81.696537
 20
60.111783
 30
0.0
  0
SPLINE
  5
12c
100
AcDbEntity
  8
alto
 62
1
100
AcDbSpline
 70
8
 71
3
 72
8
 73
4
 74
0
 40
0
 40
0
 40
0
 40
0
 40
1
 40
1
 40
1
 40
1
 10
81.696537
 20
60.111783
 30
0.0
 10
117.993664
 20
66.163496
 30
0.0
 10
121.445928
 20
203.424938
 30
0.0
 10
82.044274
 20
204.552865
 30
0.0
  0
LWPOLYLINE
  5
12d
100
AcDbEntity
  8
alto
 62
1
100
AcDbPolyline
 90
2
 70
1
 10
48.648662
 20
172.807154
 30
0.0
 10
48.648662
 20
172.807154
 30
0.0
  0
SPLINE
  5
12e
100
AcDbEntity
  8
alto
 62
1
100
AcDbSpline
 70
8
 71
3
 72
8
 73
4
 74
0
 40
0
 40
0
 40
0
 40
0
 40
1
 40
1
 40
1
 40
1
 10
81.864106
 20
79.805602
 30
0.0
 10
103.570424
 20
80.305536
 30
0.0
 10
111.156642
 20
186.509625
 30
0.0
 10
82.617538
 20
187.647248
 30
0.0
  0
SPLINE
  5
12f
100
AcDbEntity
  8
alto
 62
1
100
AcDbSpline
 70
8
 71
3
 72
8
 73
4
 74
0
 40
0
 40
0
 40
0
 40
0
 40
1
 40
1
 40
1
 40
1
 10
82.617538
 20
187.647248
 30
0.0
 10
54.078436
 20
188.784875
 30
0.0
 10
60.157788
 20
79.305668
 30
0.0
 10
81.864106
 20
79.805602
 30
0.0
  0
LWPOLYLINE
  5
130
100
AcDbEntity
  8
alto
 62
1
100
AcDbPolyline
 90
2
 70
1
 10
82.044274
 20
204.552865
 30
0.0
 10
82.044274
 20
204.552865
 30
0.0
  0
SPLINE
  5
131
100
AcDbEntity
  8
alto
 62
1
100
AcDbSpline
 70
8
 71
3
 72
8
 73
4
 74
0
 40
0
 40
0
 40
0
 40
0
 40
1
 40
1
 40
1
 40
1
 10
81.749453
 20
175.761158
 30
0.0
 10
68.198141
 20
175.951745
 30
0.0
 10
63.484799
 20
103.683005
 30
0.0
 10
81.352578
 20
103.759213
 30
0.0
  0
SPLINE
  5
132
100
AcDbEntity
  8
alto
 62
1
100
AcDbSpline
 70
8
 71
3
 72
8
 73
4
 74
0
 40
0
 40
0
 40
0
 40
0
 40
1
 40
1
 40
1
 40
1
 10
81.352578
 20
103.759213
 30
0.0
 10
99.220358
 20
103.835422
 30
0.0
 10
95.300765
 20
175.570570
 30
0.0
 10
81.749453
 20
175.761158
 30
0.0
  0
LWPOLYLINE
  5
133
100
AcDbEntity
  8
alto
 62
1
100
AcDbPolyline
 90
2
 70
1
 10
81.864106
 20
79.805602
 30
0.0
 10
81.864106
 20
79.805602
 30
0.0
  0
SPLINE
  5
134
100
AcDbEntity
  8
lato
 62
5
100
AcDbSpline
 70
8
 71
3
 72
8
 73
4
 74
0
 40
0
 40
0
 40
0
 40
0
 40
1
 40
1
 40
1
 40
1
 10
80.095409
 20
293.865231
 30
0.0
 10
226.502996
 20
169.758726
 30
0.0
 10
124.902996
 20
0.425381
 30
0.0
 10
78.535818
 20
0.425410
 30
0.0
  0
SPLINE
  5
135
100
AcDbEntity
  8
lato
 62
5
100
AcDbSpline
 70
8
 71
3
 72
8
 73
4
 74
0
 40
0
 40
0
 40
0
 40
0
 40
1
 40
1
 40
1
 40
1
 10
78.535818
 20
0.425410
 30
0.0
 10
57.169662
 20
0.425410
 30
0.0
 10
23.302995
 20
68.158726
 30
0.0
 10
24.284751
 20
167.462806
 30
0.0
  0
SPLINE
  5
136
100
AcDbEntity
  8
lato
 62
5
100
AcDbSpline
 70
8
 71
3
 72
8
 73
4
 74
0
 40
0
 40
0
 40
0
 40
0
 40
1
 40
1
 40
1
 40
1
 10
24.284751
 20
167.462806
 30
0.0
 10
23.302995
 20
214.914282
 30
0.0
 10
68.458551
 20
226.203170
 30
0.0
 10
80.095409
 20
293.865231
 30
0.0
  0
LWPOLYLINE
  5
137
100
AcDbEntity
  8
alto
 62
1
100
AcDbPolyline
 90
2
 70
1
 10
81.749453
 20
175.761158
 30
0.0
 10
81.749453
 20
175.761158
 30
0.0
  0
SPLINE
  5
138
100
AcDbEntity
  8
fondo
 62
3
100
AcDbSpline
 70
8
 71
3
 72
8
 73
4
 74
0
 40
0
 40
0
 40
0
 40
0
 40
1
 40
1
 40
1
 40
1
 10
0.725217
 20
147.180948
 30
0.0
 10
79.747440
 20
192.336504
 30
0.0
 10
158.769662
 20
147.180948
 30
0.0
 10
158.769662
 20
147.180948
 30
0.0
  0
SPLINE
  5
139
100
AcDbEntity
  8
fondo
 62
3
100
AcDbSpline
 70
8
 71
3
 72
8
 73
4
 74
0
 40
0
 40
0
 40
0
 40
0
 40
1
 40
1
 40
1
 40
1
 10
158.769662
 20
147.180948
 30
0.0
 10
158.769662
 20
147.180948
 30
0.0
 10
147.480774
 20
102.025393
 30
0.0
 10
79.747440
 20
102.025393
 30
0.0
  0
SPLINE
  5
13a
100
AcDbEntity
  8
fondo
 62
3
100
AcDbSpline
 70
8
 71
3
 72
8
 73
4
 74
0
 40
0
 40
0
 40
0
 40
0
 40
1
 40
1
 40
1
 40
1
 10
79.747440
 20
102.025393
 30
0.0
 10
12.014106
 20
102.025393
 30
0.0
 10
0.725217
 20
147.180948
 30
0.0
 10
0.725217
 20
147.180948
 30
0.0
  0
LWPOLYLINE
  5
13b
100
AcDbEntity
  8
lato
 62
5
100
AcDbPolyline
 90
2
 70
1
 10
80.095409
 20
293.865231
 30
0.0
 10
80.095409
 20
293.865231
 30
0.0
  0
LWPOLYLINE
  5
13c
100
AcDbEntity
  8
fondo
 62
3
100
AcDbPolyline
 90
2
 70
1
 10
0.725217
 20
147.180948
 30
0.0
 10
0.725217
 20
147.180948
 30
0.0
  0
ENDSEC
  0
SECTION
  2
OBJECTS
  0
DICTIONARY
  5
C
330
0
100
AcDbDictionary
  3
ACAD_GROUP
350
D
  3
ACAD_MLINESTYLE
350
17
  0
DICTIONARY
  5
D
330
C
100
AcDbDictionary
  0
DICTIONARY
  5
1A
330
C
100
AcDbDictionary
  0
DICTIONARY
  5
17
330
C
100
AcDbDictionary
  3
STANDARD
350
18
  0
DICTIONARY
  5
19
330
C
100
AcDbDictionary
  0
ENDSEC
  0
EOF
