  0
SECTION
  2
HEADER
  9
$ACADVER
  1
AC1009
  9
$INSBASE
 10
0.0
 20
0.0
 30
0.0
  9
$EXTMIN
 10
0.0
 20
0.0
 30
0.0
  9
$EXTMAX
 10
0.0
 20
0.0
 30
0.0
  0
ENDSEC
  0
SECTION
  2
TABLES
  0
TABLE
  2
VPORT
 70
0
  0
ENDTAB
  0
TABLE
  2
LTYPE
 70
1
  0
LTYPE
  2
CONTINUOUS
 70
0
  3
Solid line
 72
65
 73
0
 40
0.0
  0
ENDTAB
  0
TABLE
  2
LAYER
 70
1
  0
LAYER
  2
0
 70
64
 62
7
  6
continuous
  0
ENDTAB
  0
TABLE
  2
STYLE
 70
1
  0
STYLE
  2
STANDARD
 70
0
 40
0
 41
1.0
 50
0.0
 71
0
 42
1
 3
ARIAL.TTF
 4

  0
ENDTAB
  0
TABLE
  2
VIEW
 70
0
  0
ENDTAB
  0
ENDSEC
  0
SECTION
  2
BLOCKS
  0
ENDSEC
  0
SECTION
  2
ENTITIES
  0
POLYLINE
  8
0
 62
0
 70
1
 66
1
 10
0.0
 20
0.0
 30
0.0
  0
VERTEX
  8
0
 10
80.8586871313
 20
-39.2776312552
  0
VERTEX
  8
0
 10
51.1510370469
 20
-73.8068728868
  0
VERTEX
  8
0
 10
26.2514374954
 20
-120.650303291
  0
VERTEX
  8
0
 10
23.4675098018
 20
-208.92785563
  0
VERTEX
  8
0
 10
45.9072297707
 20
-264.4556989
  0
VERTEX
  8
0
 10
95.4725061691
 20
-278.557991324
  0
VERTEX
  8
0
 10
128.57406747
 20
-243.383442902
  0
VERTEX
  8
0
 10
142.136185426
 20
-152.325276214
  0
VERTEX
  8
0
 10
114.245188447
 20
-76.5802200135
  0
VERTEX
  8
0
 10
80.9909787943
 20
-39.1100618018
  0
SEQEND
  8
0
  0
POLYLINE
  8
0
 62
0
 70
1
 66
1
 10
0.0
 20
0.0
 30
0.0
  0
VERTEX
  8
0
 10
82.0442716094
 20
-93.459260342
  0
VERTEX
  8
0
 10
81.6965343302
 20
-237.900350252
  0
SEQEND
  8
0
  0
POLYLINE
  8
0
 62
0
 70
1
 66
1
 10
0.0
 20
0.0
 30
0.0
  0
VERTEX
  8
0
 10
80.6344220709
 20
-21.8153075532
  0
VERTEX
  8
0
 10
27.7177549013
 20
-89.3017006299
  0
VERTEX
  8
0
 10
9.68845412082
 20
-169.179376563
  0
VERTEX
  8
0
 10
22.4028756048
 20
-243.881694974
  0
VERTEX
  8
0
 10
54.9610200076
 20
-284.308410522
  0
VERTEX
  8
0
 10
105.778657482
 20
-284.934605222
  0
VERTEX
  8
0
 10
131.504976211
 20
-259.199487529
  0
VERTEX
  8
0
 10
150.290392355
 20
-197.578025888
  0
VERTEX
  8
0
 10
149.928795142
 20
-131.343994554
  0
VERTEX
  8
0
 10
117.307161184
 20
-64.6566832622
  0
VERTEX
  8
0
 10
81.3752553836
 20
-20.7393352733
  0
SEQEND
  8
0
  0
POLYLINE
  8
0
 62
0
 70
1
 66
1
 10
0.0
 20
0.0
 30
0.0
  0
VERTEX
  8
0
 10
159.570276452
 20
-162.539189673
  0
VERTEX
  8
0
 10
80.8360077542
 20
-4.3578171893
  0
VERTEX
  8
0
 10
0.961391347667
 20
-163.253449
  0
VERTEX
  8
0
 10
80.0296593766
 20
-297.86896325
  0
SEQEND
  8
0
  0
POLYLINE
  8
0
 62
0
 70
1
 66
1
 10
0.0
 20
0.0
 30
0.0
  0
VERTEX
  8
0
 10
159.570276452
 20
-162.539189673
  0
VERTEX
  8
0
 10
80.8360077542
 20
-4.3578171893
  0
VERTEX
  8
0
 10
0.961391347667
 20
-163.253449
  0
VERTEX
  8
0
 10
80.0296593766
 20
-297.86896325
  0
SEQEND
  8
0
  0
POLYLINE
  8
0
 62
0
 70
1
 66
1
 10
0.0
 20
0.0
 30
0.0
  0
VERTEX
  8
0
 10
80.6344220709
 20
-21.8153075532
  0
VERTEX
  8
0
 10
27.7177549013
 20
-89.3017006299
  0
VERTEX
  8
0
 10
9.68845412082
 20
-169.179376563
  0
VERTEX
  8
0
 10
22.4028756048
 20
-243.881694974
  0
VERTEX
  8
0
 10
54.9610200076
 20
-284.308410522
  0
VERTEX
  8
0
 10
105.778657482
 20
-284.934605222
  0
VERTEX
  8
0
 10
131.504976211
 20
-259.199487529
  0
VERTEX
  8
0
 10
150.290392355
 20
-197.578025888
  0
VERTEX
  8
0
 10
149.928795142
 20
-131.343994554
  0
VERTEX
  8
0
 10
117.307161184
 20
-64.6566832622
  0
VERTEX
  8
0
 10
81.3752553836
 20
-20.7393352733
  0
SEQEND
  8
0
  0
POLYLINE
  8
0
 62
0
 70
1
 66
1
 10
0.0
 20
0.0
 30
0.0
  0
VERTEX
  8
0
 10
81.1056315689
 20
-56.7842294174
  0
VERTEX
  8
0
 10
41.9955988351
 20
-111.226939474
  0
VERTEX
  8
0
 10
33.3702557862
 20
-196.624766659
  0
VERTEX
  8
0
 10
51.4282018392
 20
-252.029101011
  0
VERTEX
  8
0
 10
70.3018124251
 20
-267.322018499
  0
VERTEX
  8
0
 10
99.1061171791
 20
-263.626671078
  0
VERTEX
  8
0
 10
119.278009218
 20
-234.195091187
  0
VERTEX
  8
0
 10
126.504568661
 20
-128.836015352
  0
VERTEX
  8
0
 10
89.2815413858
 20
-65.4309627927
  0
SEQEND
  8
0
  0
POLYLINE
  8
0
 62
0
 70
1
 66
1
 10
0.0
 20
0.0
 30
0.0
  0
VERTEX
  8
0
 10
81.2379232319
 20
-89.8306895249
  0
VERTEX
  8
0
 10
54.4542533328
 20
-166.076949841
  0
VERTEX
  8
0
 10
81.6965343302
 20
-237.900350252
  0
VERTEX
  8
0
 10
107.608414165
 20
-167.223988502
  0
VERTEX
  8
0
 10
81.4495898926
 20
-89.5572867325
  0
SEQEND
  8
0
  0
POLYLINE
  8
0
 62
0
 70
1
 66
1
 10
0.0
 20
0.0
 30
0.0
  0
VERTEX
  8
0
 10
81.7494509954
 20
-122.250969043
  0
VERTEX
  8
0
 10
81.3525760065
 20
-194.252917353
  0
VERTEX
  8
0
 10
81.9875759888
 20
-122.815413518
  0
SEQEND
  8
0
  0
POLYLINE
  8
0
 62
0
 70
1
 66
1
 10
0.0
 20
0.0
 30
0.0
  0
VERTEX
  8
0
 10
81.7229926628
 20
-108.09575995
  0
VERTEX
  8
0
 10
67.8626081597
 20
-166.979414711
  0
VERTEX
  8
0
 10
81.86410377
 20
-218.206529751
  0
VERTEX
  8
0
 10
95.5566704778
 20
-166.880360351
  0
VERTEX
  8
0
 10
81.8111871048
 20
-107.945829386
  0
SEQEND
  8
0
  0
POLYLINE
  8
0
 62
0
 70
1
 66
1
 10
0.0
 20
0.0
 30
0.0
  0
VERTEX
  8
0
 10
80.091395486
 20
-72.8797163926
  0
VERTEX
  8
0
 10
48.648660161
 20
-125.204972269
  0
VERTEX
  8
0
 10
54.1449095636
 20
-228.813237298
  0
VERTEX
  8
0
 10
71.4836179478
 20
-252.399517698
  0
VERTEX
  8
0
 10
102.083358341
 20
-240.631101577
  0
VERTEX
  8
0
 10
115.784933582
 20
-195.956848223
  0
VERTEX
  8
0
 10
109.483199401
 20
-112.772269912
  0
VERTEX
  8
0
 10
81.3790343391
 20
-71.4156885362
  0
SEQEND
  8
0
  0
POLYLINE
  8
0
 62
0
 70
1
 66
1
 10
0.0
 20
0.0
 30
0.0
  0
VERTEX
  8
0
 10
81.7494509954
 20
-122.250969043
  0
VERTEX
  8
0
 10
81.3525760065
 20
-194.252917353
  0
SEQEND
  8
0
  0
POLYLINE
  8
0
 62
0
 70
1
 66
1
 10
0.0
 20
0.0
 30
0.0
  0
VERTEX
  8
0
 10
0.725217110929
 20
-150.83117992
  0
VERTEX
  8
0
 10
158.769658004
 20
-150.83117992
  0
VERTEX
  8
0
 10
79.7474379807
 20
-195.9867379
  0
SEQEND
  8
0
  0
POLYLINE
  8
0
 62
0
 70
1
 66
1
 10
0.0
 20
0.0
 30
0.0
  0
VERTEX
  8
0
 10
81.86410377
 20
-218.206529751
  0
VERTEX
  8
0
 10
82.6175354824
 20
-110.364877539
  0
SEQEND
  8
0
  0
POLYLINE
  8
0
 62
0
 70
1
 66
1
 10
0.0
 20
0.0
 30
0.0
  0
VERTEX
  8
0
 10
80.0954066821
 20
-4.14688917153
  0
VERTEX
  8
0
 10
78.5358156811
 20
-297.586726422
  0
VERTEX
  8
0
 10
24.2847507997
 20
-130.549321165
  0
SEQEND
  8
0
  0
POLYLINE
  8
0
 62
0
 70
1
 66
1
 10
0.0
 20
0.0
 30
0.0
  0
VERTEX
  8
0
 10
80.0954066821
 20
-4.14688917153
  0
VERTEX
  8
0
 10
78.5358156811
 20
-297.586726422
  0
VERTEX
  8
0
 10
24.2847507997
 20
-130.549321165
  0
SEQEND
  8
0
  0
POLYLINE
  8
0
 62
0
 70
1
 66
1
 10
0.0
 20
0.0
 30
0.0
  0
VERTEX
  8
0
 10
0.725217110929
 20
-150.83117992
  0
VERTEX
  8
0
 10
158.769658004
 20
-150.83117992
  0
VERTEX
  8
0
 10
79.7474379807
 20
-195.9867379
  0
SEQEND
  8
0
  0
POLYLINE
  8
0
 62
0
 70
1
 66
1
 10
0.0
 20
0.0
 30
0.0
  0
VERTEX
  8
0
 10
80.8586871313
 20
-39.2776312552
  0
VERTEX
  8
0
 10
51.1510370469
 20
-73.8068728868
  0
VERTEX
  8
0
 10
26.2514374954
 20
-120.650303291
  0
VERTEX
  8
0
 10
23.4675098018
 20
-208.92785563
  0
VERTEX
  8
0
 10
45.9072297707
 20
-264.4556989
  0
VERTEX
  8
0
 10
95.4725061691
 20
-278.557991324
  0
VERTEX
  8
0
 10
128.57406747
 20
-243.383442902
  0
VERTEX
  8
0
 10
142.136185426
 20
-152.325276214
  0
VERTEX
  8
0
 10
114.245188447
 20
-76.5802200135
  0
VERTEX
  8
0
 10
80.9909787943
 20
-39.1100618018
  0
SEQEND
  8
0
  0
POLYLINE
  8
0
 62
0
 70
1
 66
1
 10
0.0
 20
0.0
 30
0.0
  0
VERTEX
  8
0
 10
81.1056315689
 20
-56.7842294174
  0
VERTEX
  8
0
 10
41.9955988351
 20
-111.226939474
  0
VERTEX
  8
0
 10
33.3702557862
 20
-196.624766659
  0
VERTEX
  8
0
 10
51.4282018392
 20
-252.029101011
  0
VERTEX
  8
0
 10
70.3018124251
 20
-267.322018499
  0
VERTEX
  8
0
 10
99.1061171791
 20
-263.626671078
  0
VERTEX
  8
0
 10
119.278009218
 20
-234.195091187
  0
VERTEX
  8
0
 10
126.504568661
 20
-128.836015352
  0
SEQEND
  8
0
  0
POLYLINE
  8
0
 62
0
 70
1
 66
1
 10
0.0
 20
0.0
 30
0.0
  0
VERTEX
  8
0
 10
48.648660161
 20
-125.204972269
  0
VERTEX
  8
0
 10
54.1449095636
 20
-228.813237298
  0
VERTEX
  8
0
 10
71.4836179478
 20
-252.399517698
  0
VERTEX
  8
0
 10
102.083358341
 20
-240.631101577
  0
VERTEX
  8
0
 10
115.784933582
 20
-195.956848223
  0
VERTEX
  8
0
 10
113.514944111
 20
-122.448459698
  0
VERTEX
  8
0
 10
81.3790343391
 20
-71.4156885362
  0
SEQEND
  8
0
  0
ENDSEC
  0
EOF
