999
dxflib 2.2.0.0
  0
SECTION
  2
HEADER
  9
$ACADVER
  1
AC1015
  9
$HANDSEED
  5
FFFF
  9
$SPLINESEGS
 70
8
  9
$DIMEXE
 40
1.25
  9
$PSVPSCALE
 40
1.0
  9
$DIMLUNIT
 70
2
  9
$GRIDMODE
 70
1
  9
$INSUNITS
 70
4
  9
$DIMADEC
 70
2
  9
$DIMASZ
 40
2.5
  9
$DIMGAP
 40
0.625
  9
$DIMTXT
 40
2.5
  9
$GRIDUNIT
 10
0.0
 20
0.0
  9
$DIMEXO
 40
0.625
  9
$LUPREC
 70
4
  9
$PINSBASE
 10
-352.8709020089537489
 20
161.7936074446705277
 30
0.0
  9
$DIMAUNIT
 70
0
  9
$AUPREC
 70
2
  9
$PLIMMIN
 10
0.0
 20
0.0
  9
$LUNITS
 70
2
  9
$PLIMMAX
 10
297.0
 20
210.0
  9
$DIMSTYLE
  2
Standard
  9
$AUNITS
 70
0
  0
ENDSEC
  0
SECTION
  2
TABLES
  0
TABLE
  2
VPORT
  5
8
100
AcDbSymbolTable
 70
1
  0
VPORT
  5
30
100
AcDbSymbolTableRecord
100
AcDbViewportTableRecord
  2
*Active
 70
0
 10
0.0
 20
0.0
 11
1.0
 21
1.0
 12
286.3055555555554861
 22
148.5
 13
0.0
 23
0.0
 14
10.0
 24
10.0
 15
10.0
 25
10.0
 16
0.0
 26
0.0
 36
1.0
 17
0.0
 27
0.0
 37
0.0
 40
297.0
 41
1.92798353909465
 42
50.0
 43
0.0
 44
0.0
 50
0.0
 51
0.0
 71
0
 72
100
 73
1
 74
3
 75
1
 76
1
 77
0
 78
0
281
0
 65
1
110
0.0
120
0.0
130
0.0
111
1.0
121
0.0
131
0.0
112
0.0
122
1.0
132
0.0
 79
0
146
0.0
  0
ENDTAB
  0
TABLE
  2
LTYPE
  5
5
100
AcDbSymbolTable
 70
21
  0
LTYPE
  5
14
100
AcDbSymbolTableRecord
100
AcDbLinetypeTableRecord
  2
ByBlock
 70
0
  3

 72
65
 73
0
 40
0.0
  0
LTYPE
  5
15
100
AcDbSymbolTableRecord
100
AcDbLinetypeTableRecord
  2
ByLayer
 70
0
  3

 72
65
 73
0
 40
0.0
  0
LTYPE
  5
16
100
AcDbSymbolTableRecord
100
AcDbLinetypeTableRecord
  2
CONTINUOUS
 70
0
  3
Solid line
 72
65
 73
0
 40
0.0
  0
LTYPE
  5
31
100
AcDbSymbolTableRecord
100
AcDbLinetypeTableRecord
  2
DOT
 70
0
  3
Dot . . . . . . . . . . . . . . . . . . . . . .
 72
65
 73
2
 40
6.3499999999999996
 49
0.0
 74
0
 49
-6.3499999999999996
 74
0
  0
LTYPE
  5
32
100
AcDbSymbolTableRecord
100
AcDbLinetypeTableRecord
  2
DOT2
 70
0
  3
Dot (.5x) .....................................
 72
65
 73
2
 40
3.1749999999999998
 49
0.0
 74
0
 49
-3.1749999999999998
 74
0
  0
LTYPE
  5
33
100
AcDbSymbolTableRecord
100
AcDbLinetypeTableRecord
  2
DOTX2
 70
0
  3
Dot (2x) .  .  .  .  .  .  .  .  .  .  .  .  .
 72
65
 73
2
 40
12.6999999999999993
 49
0.0
 74
0
 49
-12.6999999999999993
 74
0
  0
LTYPE
  5
34
100
AcDbSymbolTableRecord
100
AcDbLinetypeTableRecord
  2
DASHED
 70
0
  3
Dashed __ __ __ __ __ __ __ __ __ __ __ __ __ _
 72
65
 73
2
 40
19.0500000000000007
 49
12.6999999999999993
 74
0
 49
-6.3499999999999996
 74
0
  0
LTYPE
  5
35
100
AcDbSymbolTableRecord
100
AcDbLinetypeTableRecord
  2
DASHED2
 70
0
  3
Dashed (.5x) _ _ _ _ _ _ _ _ _ _ _ _ _ _ _ _ _
 72
65
 73
2
 40
9.5250000000000004
 49
6.3499999999999996
 74
0
 49
-3.1749999999999998
 74
0
  0
LTYPE
  5
36
100
AcDbSymbolTableRecord
100
AcDbLinetypeTableRecord
  2
DASHEDX2
 70
0
  3
Dashed (2x) ____  ____  ____  ____  ____  ___
 72
65
 73
2
 40
38.1000000000000014
 49
25.3999999999999986
 74
0
 49
-12.6999999999999993
 74
0
  0
LTYPE
  5
37
100
AcDbSymbolTableRecord
100
AcDbLinetypeTableRecord
  2
DASHDOT
 70
0
  3
Dash dot __ . __ . __ . __ . __ . __ . __ . __
 72
65
 73
4
 40
25.3999999999999986
 49
12.6999999999999993
 74
0
 49
-6.3499999999999996
 74
0
 49
0.0
 74
0
 49
-6.3499999999999996
 74
0
  0
LTYPE
  5
38
100
AcDbSymbolTableRecord
100
AcDbLinetypeTableRecord
  2
DASHDOT2
 70
0
  3
Dash dot (.5x) _._._._._._._._._._._._._._._.
 72
65
 73
4
 40
12.6999999999999993
 49
6.3499999999999996
 74
0
 49
-3.1749999999999998
 74
0
 49
0.0
 74
0
 49
-3.1749999999999998
 74
0
  0
LTYPE
  5
39
100
AcDbSymbolTableRecord
100
AcDbLinetypeTableRecord
  2
DASHDOTX2
 70
0
  3
Dash dot (2x) ____  .  ____  .  ____  .  ___
 72
65
 73
4
 40
50.7999999999999972
 49
25.3999999999999986
 74
0
 49
-12.6999999999999993
 74
0
 49
0.0
 74
0
 49
-12.6999999999999993
 74
0
  0
LTYPE
  5
3A
100
AcDbSymbolTableRecord
100
AcDbLinetypeTableRecord
  2
DIVIDE
 70
0
  3
Divide ____ . . ____ . . ____ . . ____ . . ____
 72
65
 73
6
 40
31.75
 49
12.6999999999999993
 74
0
 49
-6.3499999999999996
 74
0
 49
0.0
 74
0
 49
-6.3499999999999996
 74
0
 49
0.0
 74
0
 49
-6.3499999999999996
 74
0
  0
LTYPE
  5
3B
100
AcDbSymbolTableRecord
100
AcDbLinetypeTableRecord
  2
DIVIDE2
 70
0
  3
Divide (.5x) __..__..__..__..__..__..__..__.._
 72
65
 73
6
 40
15.875
 49
6.3499999999999996
 74
0
 49
-3.1749999999999998
 74
0
 49
0.0
 74
0
 49
-3.1749999999999998
 74
0
 49
0.0
 74
0
 49
-3.1749999999999998
 74
0
  0
LTYPE
  5
3C
100
AcDbSymbolTableRecord
100
AcDbLinetypeTableRecord
  2
DIVIDEX2
 70
0
  3
Divide (2x) ________  .  .  ________  .  .  _
 72
65
 73
6
 40
63.5
 49
25.3999999999999986
 74
0
 49
-12.6999999999999993
 74
0
 49
0.0
 74
0
 49
-12.6999999999999993
 74
0
 49
0.0
 74
0
 49
-12.6999999999999993
 74
0
  0
LTYPE
  5
3D
100
AcDbSymbolTableRecord
100
AcDbLinetypeTableRecord
  2
CENTER
 70
0
  3
Center ____ _ ____ _ ____ _ ____ _ ____ _ ____
 72
65
 73
4
 40
50.7999999999999972
 49
31.75
 74
0
 49
-6.3499999999999996
 74
0
 49
6.3499999999999996
 74
0
 49
-6.3499999999999996
 74
0
  0
LTYPE
  5
3E
100
AcDbSymbolTableRecord
100
AcDbLinetypeTableRecord
  2
CENTER2
 70
0
  3
Center (.5x) ___ _ ___ _ ___ _ ___ _ ___ _ ___
 72
65
 73
4
 40
28.5749999999999993
 49
19.0500000000000007
 74
0
 49
-3.1749999999999998
 74
0
 49
3.1749999999999998
 74
0
 49
-3.1749999999999998
 74
0
  0
LTYPE
  5
3F
100
AcDbSymbolTableRecord
100
AcDbLinetypeTableRecord
  2
CENTERX2
 70
0
  3
Center (2x) ________  __  ________  __  _____
 72
65
 73
4
 40
101.5999999999999943
 49
63.5
 74
0
 49
-12.6999999999999993
 74
0
 49
12.6999999999999993
 74
0
 49
-12.6999999999999993
 74
0
  0
LTYPE
  5
40
100
AcDbSymbolTableRecord
100
AcDbLinetypeTableRecord
  2
BORDER
 70
0
  3
Border __ __ . __ __ . __ __ . __ __ . __ __ .
 72
65
 73
6
 40
44.4500000000000028
 49
12.6999999999999993
 74
0
 49
-6.3499999999999996
 74
0
 49
12.6999999999999993
 74
0
 49
-6.3499999999999996
 74
0
 49
0.0
 74
0
 49
-6.3499999999999996
 74
0
  0
LTYPE
  5
41
100
AcDbSymbolTableRecord
100
AcDbLinetypeTableRecord
  2
BORDER2
 70
0
  3
Border (.5x) __.__.__.__.__.__.__.__.__.__.__.
 72
65
 73
6
 40
22.2250000000000014
 49
6.3499999999999996
 74
0
 49
-3.1749999999999998
 74
0
 49
6.3499999999999996
 74
0
 49
-3.1749999999999998
 74
0
 49
0.0
 74
0
 49
-3.1749999999999998
 74
0
  0
LTYPE
  5
42
100
AcDbSymbolTableRecord
100
AcDbLinetypeTableRecord
  2
BORDERX2
 70
0
  3
Border (2x) ____  ____  .  ____  ____  .  ___
 72
65
 73
6
 40
88.9000000000000057
 49
25.3999999999999986
 74
0
 49
-12.6999999999999993
 74
0
 49
25.3999999999999986
 74
0
 49
-12.6999999999999993
 74
0
 49
0.0
 74
0
 49
-12.6999999999999993
 74
0
  0
ENDTAB
  0
TABLE
  2
LAYER
  5
2
100
AcDbSymbolTable
 70
3
  0
LAYER
  5
10
100
AcDbSymbolTableRecord
100
AcDbLayerTableRecord
  2
0
 70
0
 62
7
  6
CONTINUOUS
370
0
390
F
  0
LAYER
  5
43
100
AcDbSymbolTableRecord
100
AcDbLayerTableRecord
  2
quote
 70
0
 62
5
  6
CONTINUOUS
370
0
390
F
  0
LAYER
  5
44
100
AcDbSymbolTableRecord
100
AcDbLayerTableRecord
  2
rettangolo
 70
1
 62
7
  6
CONTINUOUS
370
0
390
F
  0
ENDTAB
  0
TABLE
  2
STYLE
  5
3
100
AcDbSymbolTable
 70
1
  0
STYLE
  5
11
100
AcDbSymbolTableRecord
100
AcDbTextStyleTableRecord
  2
Standard
 70
0
 40
0.0
 41
0.75
 50
0.0
 71
0
 42
2.5
  3
txt
  4

  0
ENDTAB
  0
TABLE
  2
VIEW
  5
6
100
AcDbSymbolTable
 70
0
  0
ENDTAB
  0
TABLE
  2
UCS
  5
7
100
AcDbSymbolTable
 70
0
  0
ENDTAB
  0
TABLE
  2
APPID
  5
9
100
AcDbSymbolTable
 70
1
  0
APPID
  5
12
100
AcDbSymbolTableRecord
100
AcDbRegAppTableRecord
  2
ACAD
 70
0
  0
ENDTAB
  0
TABLE
  2
DIMSTYLE
  5
A
100
AcDbSymbolTable
 70
1
100
AcDbDimStyleTable
 71
0
  0
DIMSTYLE
105
27
100
AcDbSymbolTableRecord
100
AcDbDimStyleTableRecord
  2
Standard
 41
2.5
 42
0.625
 43
3.75
 44
1.25
 70
0
 73
0
 74
0
 77
1
 78
8
140
2.5
141
2.5
143
0.03937007874016
147
0.625
171
3
172
1
271
2
272
2
274
3
278
44
283
0
284
8
340
11
  0
ENDTAB
  0
TABLE
  2
BLOCK_RECORD
  5
1
100
AcDbSymbolTable
 70
1
  0
BLOCK_RECORD
  5
1F
100
AcDbSymbolTableRecord
100
AcDbBlockTableRecord
  2
*Model_Space
340
22
  0
BLOCK_RECORD
  5
1B
100
AcDbSymbolTableRecord
100
AcDbBlockTableRecord
  2
*Paper_Space
340
1E
  0
BLOCK_RECORD
  5
23
100
AcDbSymbolTableRecord
100
AcDbBlockTableRecord
  2
*Paper_Space0
340
26
  0
ENDTAB
  0
ENDSEC
  0
SECTION
  2
BLOCKS
  0
BLOCK
  5
20
100
AcDbEntity
  8
0
100
AcDbBlockBegin
  2
*Model_Space
 70
0
 10
0.0
 20
0.0
 30
0.0
  3
*Model_Space
  1

  0
ENDBLK
  5
21
100
AcDbEntity
  8
0
100
AcDbBlockEnd
  0
BLOCK
  5
1C
100
AcDbEntity
 67
1
  8
0
100
AcDbBlockBegin
  2
*Paper_Space
 70
0
 10
0.0
 20
0.0
 30
0.0
  3
*Paper_Space
  1

  0
ENDBLK
  5
1D
100
AcDbEntity
 67
1
  8
0
100
AcDbBlockEnd
  0
BLOCK
  5
24
100
AcDbEntity
  8
0
100
AcDbBlockBegin
  2
*Paper_Space0
 70
0
 10
0.0
 20
0.0
 30
0.0
  3
*Paper_Space0
  1

  0
ENDBLK
  5
25
100
AcDbEntity
  8
0
100
AcDbBlockEnd
  0
ENDSEC
  0
SECTION
  2
ENTITIES
  0
POINT
  5
45
100
AcDbEntity
100
AcDbPoint
  8
0
 62
256
370
-1
  6
ByLayer
 10
0.0
 20
0.0
 30
0.0
  0
LINE
  5
46
100
AcDbEntity
100
AcDbLine
  8
0
 62
256
370
-1
  6
ByLayer
 10
0.0
 20
0.0
 30
0.0
 11
0.0
 21
0.0
 31
0.0
  0
LINE
  5
47
100
AcDbEntity
100
AcDbLine
  8
0
 62
256
370
-1
  6
ByLayer
 10
350.0
 20
15.0
 30
0.0
 11
0.0
 21
15.0
 31
0.0
  0
DIMENSION
  5
48
100
AcDbEntity
  8
quote
 62
256
370
-1
  6
ByLayer
100
AcDbDimension
 10
640.0
 20
46.428756199795167
 30
0.0
 11
320.0
 21
48.303756199795167
 31
0.0
 70
0
 71
5
 72
0
 41
1.0
 42
0.0
  1

  3
Standard
100
AcDbAlignedDimension
 13
0.0
 23
35.0
 33
0.0
 14
640.0
 24
35.0
 34
0.0
 50
0.0
100
AcDbRotatedDimension
  0
DIMENSION
  5
49
100
AcDbEntity
  8
quote
 62
256
370
-1
  6
ByLayer
100
AcDbDimension
 10
350.0
 20
9.9909981695761765
 30
0.0
 11
175.0
 21
11.8659981695761765
 31
0.0
 70
0
 71
5
 72
0
 41
1.0
 42
0.0
  1

  3
Standard
100
AcDbAlignedDimension
 13
0.0
 23
15.0
 33
0.0
 14
350.0
 24
15.0
 34
0.0
 50
0.0
100
AcDbRotatedDimension
  0
DIMENSION
  5
4A
100
AcDbEntity
  8
quote
 62
256
370
-1
  6
ByLayer
100
AcDbDimension
 10
501.313025802851655
 20
30.0
 30
0.0
 11
499.438025802851655
 21
32.5
 31
0.0
 70
1
 71
5
 72
0
 41
1.0
 42
0.0
  1

  3
Standard
100
AcDbAlignedDimension
 13
495.0
 23
35.0
 33
0.0
 14
495.0
 24
30.0
 34
0.0
  0
DIMENSION
  5
4B
100
AcDbEntity
  8
quote
 62
256
370
-1
  6
ByLayer
100
AcDbDimension
 10
515.0
 20
-5.8770577468095162
 30
0.0
 11
505.0
 21
-4.0020577468095162
 31
0.0
 70
1
 71
5
 72
0
 41
1.0
 42
0.0
  1

  3
Standard
100
AcDbAlignedDimension
 13
495.0
 23
0.0
 33
0.0
 14
515.0
 24
0.0
 34
0.0
  0
DIMENSION
  5
4C
100
AcDbEntity
  8
quote
 62
256
370
-1
  6
ByLayer
100
AcDbDimension
 10
369.0
 20
-5.8770577468095162
 30
0.0
 11
379.0
 21
-4.0020577468095162
 31
0.0
 70
1
 71
5
 72
0
 41
1.0
 42
0.0
  1

  3
Standard
100
AcDbAlignedDimension
 13
389.0
 23
0.0
 33
0.0
 14
369.0
 24
0.0
 34
0.0
  0
DIMENSION
  5
4D
100
AcDbEntity
  8
quote
 62
256
370
-1
  6
ByLayer
100
AcDbDimension
 10
495.0
 20
23.5082309872380613
 30
0.0
 11
442.0
 21
25.3832309872380613
 31
0.0
 70
1
 71
5
 72
0
 41
1.0
 42
0.0
  1

  3
Standard
100
AcDbAlignedDimension
 13
389.0
 23
20.0
 33
0.0
 14
495.0
 24
20.0
 34
0.0
  0
DIMENSION
  5
4E
100
AcDbEntity
  8
quote
 62
256
370
-1
  6
ByLayer
100
AcDbDimension
 10
349.0
 20
-7.0524692961714184
 30
0.0
 11
359.0
 21
-5.1774692961714184
 31
0.0
 70
1
 71
5
 72
0
 41
1.0
 42
0.0
  1

  3
Standard
100
AcDbAlignedDimension
 13
369.0
 23
0.0
 33
0.0
 14
349.0
 24
0.0
 34
0.0
  0
DIMENSION
  5
4F
100
AcDbEntity
  8
quote
 62
256
370
-1
  6
ByLayer
100
AcDbDimension
 10
359.0882283300613835
 20
14.9999999999999982
 30
0.0
 11
357.2132283300613835
 21
7.4999999999999982
 31
0.0
 70
1
 71
5
 72
0
 41
1.0
 42
0.0
  1

  3
Standard
100
AcDbAlignedDimension
 13
349.0
 23
0.0
 33
0.0
 14
349.0
 24
15.0
 34
0.0
  0
DIMENSION
  5
50
100
AcDbEntity
  8
quote
 62
256
370
-1
  6
ByLayer
100
AcDbDimension
 10
488.9712045345516458
 20
20.0
 30
0.0
 11
487.0962045345516458
 21
10.0
 31
0.0
 70
1
 71
5
 72
0
 41
1.0
 42
0.0
  1

  3
Standard
100
AcDbAlignedDimension
 13
495.0
 23
0.0
 33
0.0
 14
495.0
 24
20.0
 34
0.0
  0
DIMENSION
  5
51
100
AcDbEntity
  8
quote
 62
256
370
-1
  6
ByLayer
100
AcDbDimension
 10
640.0
 20
-6.4647635214904664
 30
0.0
 11
577.5
 21
-4.5897635214904664
 31
0.0
 70
1
 71
5
 72
0
 41
1.0
 42
0.0
  1

  3
Standard
100
AcDbAlignedDimension
 13
515.0
 23
0.0
 33
0.0
 14
640.0
 24
0.0
 34
0.0
  0
DIMENSION
  5
52
100
AcDbEntity
  8
quote
 62
256
370
-1
  6
ByLayer
100
AcDbDimension
 10
640.0
 20
40.5516984529856543
 30
0.0
 11
567.5
 21
42.4266984529856543
 31
0.0
 70
1
 71
5
 72
0
 41
1.0
 42
0.0
  1

  3
Standard
100
AcDbAlignedDimension
 13
495.0
 23
35.0
 33
0.0
 14
640.0
 24
35.0
 34
0.0
  0
LINE
  5
53
100
AcDbEntity
100
AcDbLine
  8
0
 62
256
370
-1
  6
ByLayer
 10
495.625
 20
35.0
 30
0.0
 11
640.3265989227858199
 21
23.1697124610218559
 31
0.0
  0
DIMENSION
  5
54
100
AcDbEntity
  8
quote
 62
256
370
-1
  6
ByLayer
100
AcDbDimension
 10
436.5
 20
39.1176963627641712
 30
0.0
 11
465.75
 21
40.9926963627641712
 31
0.0
 70
1
 71
5
 72
0
 41
1.0
 42
0.0
  1

  3
Standard
100
AcDbAlignedDimension
 13
495.0
 23
35.0
 33
0.0
 14
436.5
 24
35.0
 34
0.0
  0
DIMENSION
  5
55
100
AcDbEntity
  8
quote
 62
256
370
-1
  6
ByLayer
100
AcDbDimension
 10
645.742895342245447
 20
23.1697124610218559
 30
0.0
 11
643.867895342245447
 21
29.3973562305109297
 31
0.0
 70
0
 71
5
 72
0
 41
1.0
 42
0.0
  1

  3
Standard
100
AcDbAlignedDimension
 13
640.0
 23
35.625
 33
0.0
 14
640.3265989227858199
 24
23.1697124610218559
 34
0.0
 50
90.0
100
AcDbRotatedDimension
  0
DIMENSION
  5
56
100
AcDbEntity
  8
quote
 62
256
370
-1
  6
ByLayer
100
AcDbDimension
 10
511.9152379780973092
 20
0.0000000000000004
 30
0.0
 11
510.0402379780973092
 21
4.5962768491644663
 31
0.0
 70
0
 71
5
 72
0
 41
1.0
 42
0.0
  1

  3
Standard
100
AcDbAlignedDimension
 13
525.0930787708883827
 23
9.1925536983289327
 33
0.0
 14
515.0
 24
0.0
 34
0.0
 50
90.0
100
AcDbRotatedDimension
  0
DIMENSION
  5
57
100
AcDbEntity
  8
quote
 62
256
370
-2
  6
ByLayer
100
AcDbDimension
 10
640.0
 20
-3.911769636276424
 30
0.0
 11
640.0880731222339364
 21
-2.036769636276424
 31
0.0
 70
0
 71
5
 72
0
 41
1.0
 42
0.0
  1

  3
Standard
100
AcDbAlignedDimension
 13
640.1761462444677591
 23
0.0
 33
0.0
 14
640.0
 24
-0.625
 34
0.0
 50
0.0
100
AcDbRotatedDimension
  0
LINE
  5
58
100
AcDbEntity
100
AcDbLine
  8
0
 62
256
370
-1
  6
ByLayer
 10
639.2274463034788141
 20
-55.4594489752698507
 30
0.0
 11
549.2274463034788141
 21
-55.4594489752698507
 31
0.0
  0
LINE
  5
59
100
AcDbEntity
100
AcDbLine
  8
0
 62
256
370
-1
  6
ByLayer
 10
549.2274463034788141
 20
-55.4594489752698507
 30
0.0
 11
539.2274463034788141
 21
-70.4594489752698507
 31
0.0
  0
LINE
  5
5A
100
AcDbEntity
100
AcDbLine
  8
0
 62
256
370
-1
  6
ByLayer
 10
619.2274463034788141
 20
-55.4594489752698507
 30
0.0
 11
619.2274463034788141
 21
-35.4594489752698507
 31
0.0
  0
LINE
  5
5B
100
AcDbEntity
100
AcDbLine
  8
0
 62
256
370
-1
  6
ByLayer
 10
619.2274463034788141
 20
-35.4594489752698507
 30
0.0
 11
599.2274463034788141
 21
-35.4594489752698507
 31
0.0
  0
LINE
  5
5C
100
AcDbEntity
100
AcDbLine
  8
0
 62
256
370
-1
  6
ByLayer
 10
599.2274463034788141
 20
-35.4594489752698507
 30
0.0
 11
599.2274463034788141
 21
-55.4594489752698507
 31
0.0
  0
LINE
  5
5D
100
AcDbEntity
100
AcDbLine
  8
0
 62
256
370
-1
  6
ByLayer
 10
549.2274463034788141
 20
-20.4594489752698507
 30
0.0
 11
529.2274463034788141
 21
-50.4594489752698507
 31
0.0
  0
LINE
  5
5E
100
AcDbEntity
100
AcDbLine
  8
0
 62
256
370
-1
  6
ByLayer
 10
529.2274463034788141
 20
-50.4594489752698507
 30
0.0
 11
469.2274463034788141
 21
-50.4594489752698507
 31
0.0
  0
DIMENSION
  5
5F
100
AcDbEntity
  8
quote
 62
256
370
-1
  6
ByLayer
100
AcDbDimension
 10
649.2274463034788141
 20
-55.4594489752698507
 30
0.0
 11
647.3524463034788141
 21
-37.9594489752698507
 31
0.0
 70
1
 71
5
 72
0
 41
1.0
 42
0.0
  1

  3
Standard
100
AcDbAlignedDimension
 13
639.2274463034788141
 23
-20.4594489752698507
 33
0.0
 14
639.2274463034788141
 24
-55.4594489752698507
 34
0.0
  0
DIMENSION
  5
60
100
AcDbEntity
  8
quote
 62
256
370
-1
  6
ByLayer
100
AcDbDimension
 10
649.2274463034788141
 20
-70.4594489752698507
 30
0.0
 11
647.3524463034788141
 21
-62.9594489752698507
 31
0.0
 70
1
 71
5
 72
0
 41
1.0
 42
0.0
  1

  3
Standard
100
AcDbAlignedDimension
 13
639.2274463034788141
 23
-55.4594489752698507
 33
0.0
 14
639.2274463034788141
 24
-70.4594489752698507
 34
0.0
  0
DIMENSION
  5
61
100
AcDbEntity
  8
quote
 62
256
370
-1
  6
ByLayer
100
AcDbDimension
 10
629.2274463034788141
 20
-55.4594489752698507
 30
0.0
 11
627.3524463034788141
 21
-45.4594489752698507
 31
0.0
 70
1
 71
5
 72
0
 41
1.0
 42
0.0
  1

  3
Standard
100
AcDbAlignedDimension
 13
619.2274463034788141
 23
-35.4594489752698507
 33
0.0
 14
619.2274463034788141
 24
-55.4594489752698507
 34
0.0
  0
DIMENSION
  5
62
100
AcDbEntity
  8
quote
 62
256
370
-1
  6
ByLayer
100
AcDbDimension
 10
599.2274463034788141
 20
-30.4594489752698507
 30
0.0
 11
609.2274463034788141
 21
-28.5844489752698507
 31
0.0
 70
1
 71
5
 72
0
 41
1.0
 42
0.0
  1

  3
Standard
100
AcDbAlignedDimension
 13
619.2274463034788141
 23
-35.4594489752698507
 33
0.0
 14
599.2274463034788141
 24
-35.4594489752698507
 34
0.0
  0
DIMENSION
  5
63
100
AcDbEntity
  8
quote
 62
256
370
-1
  6
ByLayer
100
AcDbDimension
 10
549.2274463034788141
 20
-10.4594489752698436
 30
0.0
 11
594.5399463034788141
 21
-8.5844489752698436
 31
0.0
 70
1
 71
5
 72
0
 41
1.0
 42
0.0
  1

  3
Standard
100
AcDbAlignedDimension
 13
639.8524463034788141
 23
-20.4594489752698507
 33
0.0
 14
549.2274463034788141
 24
-20.4594489752698507
 34
0.0
  0
DIMENSION
  5
64
100
AcDbEntity
  8
quote
 62
256
370
-1
  6
ByLayer
100
AcDbDimension
 10
529.2274463034788141
 20
-40.4594489752698507
 30
0.0
 11
499.2274463034788141
 21
-38.5844489752698507
 31
0.0
 70
1
 71
5
 72
0
 41
1.0
 42
0.0
  1

  3
Standard
100
AcDbAlignedDimension
 13
469.2274463034788141
 23
-50.4594489752698507
 33
0.0
 14
529.2274463034788141
 24
-50.4594489752698507
 34
0.0
  0
DIMENSION
  5
65
100
AcDbEntity
  8
quote
 62
256
370
-1
  6
ByLayer
100
AcDbDimension
 10
549.2274463034788141
 20
-10.4594489752698507
 30
0.0
 11
539.2274463034788141
 21
-8.5844489752698507
 31
0.0
 70
0
 71
5
 72
0
 41
1.0
 42
0.0
  1

  3
Standard
100
AcDbAlignedDimension
 13
529.2274463034788141
 23
-50.4594489752698507
 33
0.0
 14
549.2274463034788141
 24
-20.4594489752698507
 34
0.0
 50
0.0
100
AcDbRotatedDimension
  0
DIMENSION
  5
66
100
AcDbEntity
  8
quote
 62
256
370
-1
  6
ByLayer
100
AcDbDimension
 10
639.2274463034788141
 20
-60.4594489752698507
 30
0.0
 11
554.2274463034788141
 21
-58.5844489752698507
 31
0.0
 70
1
 71
5
 72
0
 41
1.0
 42
0.0
  1

  3
Standard
100
AcDbAlignedDimension
 13
469.2274463034788141
 23
-70.4594489752698507
 33
0.0
 14
639.2274463034788141
 24
-70.4594489752698507
 34
0.0
  0
LINE
  5
67
100
AcDbEntity
100
AcDbLine
  8
0
 62
256
370
-1
  6
ByLayer
 10
370.3181003999578706
 20
-115.9873425434170997
 30
0.0
 11
370.3181003999578706
 21
-73.9873425434170855
 31
0.0
  0
LINE
  5
68
100
AcDbEntity
100
AcDbLine
  8
0
 62
256
370
-1
  6
ByLayer
 10
370.3181003999578706
 20
-115.9873425434170997
 30
0.0
 11
640.3181003999578706
 21
-106.4873425434170855
 31
0.0
  0
LINE
  5
69
100
AcDbEntity
100
AcDbLine
  8
0
 62
256
370
-1
  6
ByLayer
 10
640.3181003999578706
 20
-106.4873425434170855
 30
0.0
 11
640.3181003999578706
 21
-83.4873425434170855
 31
0.0
  0
LINE
  5
6A
100
AcDbEntity
100
AcDbLine
  8
0
 62
256
370
-1
  6
ByLayer
 10
640.3181003999578706
 20
-83.4873425434170855
 30
0.0
 11
370.3181003999578706
 21
-73.9873425434170855
 31
0.0
  0
DIMENSION
  5
6B
100
AcDbEntity
  8
quote
 62
256
370
-1
  6
ByLayer
100
AcDbDimension
 10
365.0056003999578706
 20
-73.9873425434170855
 30
0.0
 11
363.1306003999578706
 21
-94.9873425434170855
 31
0.0
 70
1
 71
5
 72
0
 41
1.0
 42
0.0
  1

  3
Standard
100
AcDbAlignedDimension
 13
370.3181003999578706
 23
-115.9873425434170997
 33
0.0
 14
370.3181003999578706
 24
-73.9873425434170855
 34
0.0
  0
DIMENSION
  5
6C
100
AcDbEntity
  8
quote
 62
256
370
-1
  6
ByLayer
100
AcDbDimension
 10
645.6306003999578706
 20
-106.4873425434170855
 30
0.0
 11
643.7556003999578706
 21
-111.2373425434170855
 31
0.0
 70
1
 71
5
 72
0
 41
1.0
 42
0.0
  1

  3
Standard
100
AcDbAlignedDimension
 13
640.3181003999578706
 23
-115.9873425434170997
 33
0.0
 14
640.3181003999578706
 24
-106.4873425434170855
 34
0.0
  0
DIMENSION
  5
6D
100
AcDbEntity
  8
quote
 62
256
370
-1
  6
ByLayer
100
AcDbDimension
 10
646.2556003999578706
 20
-83.4873425434170855
 30
0.0
 11
644.3806003999578706
 21
-94.9873425434170855
 31
0.0
 70
1
 71
5
 72
0
 41
1.0
 42
0.0
  1

  3
Standard
100
AcDbAlignedDimension
 13
640.3181003999578706
 23
-106.4873425434170855
 33
0.0
 14
640.3181003999578706
 24
-83.4873425434170855
 34
0.0
  0
DIMENSION
  5
6E
100
AcDbEntity
  8
quote
 62
256
370
-1
  6
ByLayer
100
AcDbDimension
 10
640.3181003999578706
 20
-119.9215711935548256
 30
0.0
 11
505.3181003999578706
 21
-118.0465711935548256
 31
0.0
 70
1
 71
5
 72
1
 41
1.0
 42
0.0
  1

  3
Standard
100
AcDbAlignedDimension
 13
370.3181003999578706
 23
-115.9873425434170997
 33
0.0
 14
640.3181003999578706
 24
-115.9873425434170997
 34
0.0
  0
DIMENSION
  5
6F
100
AcDbEntity
  8
quote
 62
256
370
-1
  6
ByLayer
100
AcDbDimension
 10
10.0000000000000018
 20
14.9999999999999982
 30
0.0
 11
8.1250000000000036
 21
25.0
 31
0.0
 70
0
 71
5
 72
0
 41
1.0
 42
0.0
  1

  3
Standard
100
AcDbAlignedDimension
 13
0.0
 23
35.0
 33
0.0
 14
0.0
 24
15.0
 34
0.0
 50
90.0
100
AcDbRotatedDimension
  0
DIMENSION
  5
70
100
AcDbEntity
  8
quote
 62
256
370
-1
  6
ByLayer
100
AcDbDimension
 10
380.0
 20
20.0
 30
0.0
 11
378.125
 21
27.5
 31
0.0
 70
0
 71
5
 72
0
 41
1.0
 42
0.0
  1

  3
Standard
100
AcDbAlignedDimension
 13
389.116882910416507
 23
35.0
 33
0.0
 14
389.0
 24
20.0
 34
0.0
 50
90.0
100
AcDbRotatedDimension
  0
LINE
  5
71
100
AcDbEntity
100
AcDbLine
  8
0
 62
256
370
-1
  6
ByLayer
 10
520.9196642012752818
 20
19.299620814825257
 30
0.0
 11
628.8694608946725566
 21
10.6485918115216389
 31
0.0
  0
CIRCLE
  5
72
100
AcDbEntity
100
AcDbCircle
  8
0
 62
256
370
-2
  6
ByLayer
 10
520.9196642012752818
 20
18.674620814825257
 30
0.0
 40
4.5
  0
CIRCLE
  5
73
100
AcDbEntity
100
AcDbCircle
  8
0
 62
256
370
-2
  6
ByLayer
 10
560.0373605640401138
 20
15.6655672484588031
 30
0.0
 40
4.5
  0
CIRCLE
  5
74
100
AcDbEntity
100
AcDbCircle
  8
0
 62
256
370
-1
  6
ByLayer
 10
540.3607900894612612
 20
17.6019364834869627
 30
0.0
 40
8.0
  0
CIRCLE
  5
75
100
AcDbEntity
100
AcDbCircle
  8
0
 62
256
370
-1
  6
ByLayer
 10
580.3420404932147676
 20
14.5460447328815974
 30
0.0
 40
8.0
  0
DIMENSION
  5
76
100
AcDbEntity
  8
quote
 62
256
370
-1
  6
ByLayer
100
AcDbDimension
 10
530.0
 20
19.299620814825257
 30
0.0
 11
528.125
 21
27.1498104074126303
 31
0.0
 70
0
 71
5
 72
0
 41
1.0
 42
0.0
  1

  3
Standard
100
AcDbAlignedDimension
 13
521.4921723380375624
 23
35.0
 33
0.0
 14
520.9196642012752818
 24
19.299620814825257
 34
0.0
 50
90.0
100
AcDbRotatedDimension
  0
DIMENSION
  5
77
100
AcDbEntity
  8
quote
 62
256
370
-1
  6
ByLayer
100
AcDbDimension
 10
549.8567889922632048
 20
35.0
 30
0.0
 11
547.9817889922632048
 21
26.365794190775766
 31
0.0
 70
0
 71
5
 72
0
 41
1.0
 42
0.0
  1

  3
Standard
100
AcDbAlignedDimension
 13
540.4859819556038474
 23
17.7315883815515321
 33
0.0
 14
540.4853876237400527
 24
35.0
 34
0.0
 50
90.0
100
AcDbRotatedDimension
  0
DIMENSION
  5
78
100
AcDbEntity
  8
quote
 62
256
370
-1
  6
ByLayer
100
AcDbDimension
 10
569.6182223128447504
 20
35.0
 30
0.0
 11
567.7432223128447504
 21
25.6490446682810429
 31
0.0
 70
0
 71
5
 72
0
 41
1.0
 42
0.0
  1

  3
Standard
100
AcDbAlignedDimension
 13
560.0600950399609701
 23
16.2980893365620823
 33
0.0
 14
559.6356425942004762
 24
35.0
 34
0.0
 50
90.0
100
AcDbRotatedDimension
  0
DIMENSION
  5
79
100
AcDbEntity
  8
quote
 62
256
370
-1
  6
ByLayer
100
AcDbDimension
 10
589.7871078668403015
 20
35.0
 30
0.0
 11
587.9121078668403015
 21
24.7656085847123393
 31
0.0
 70
0
 71
5
 72
0
 41
1.0
 42
0.0
  1

  3
Standard
100
AcDbAlignedDimension
 13
580.4210488199694282
 23
14.5312171694246821
 33
0.0
 14
580.4157064983171495
 24
35.0
 34
0.0
 50
90.0
100
AcDbRotatedDimension
  0
DIMENSION
  5
7A
100
AcDbEntity
  8
quote
 62
256
370
-1
  6
ByLayer
100
AcDbDimension
 10
521.3605974078445797
 20
14.1815810650452612
 30
0.0
 11
508.1802987039222899
 21
16.0565810650452612
 31
0.0
 70
0
 71
5
 72
0
 41
1.0
 42
0.0
  1

  3
Standard
100
AcDbAlignedDimension
 13
495.0
 23
16.0943632198550546
 33
0.0
 14
521.3605974078445797
 24
19.2642847041942673
 34
0.0
 50
0.0
100
AcDbRotatedDimension
  0
DIMENSION
  5
7B
100
AcDbEntity
  8
quote
 62
256
370
-1
  6
ByLayer
100
AcDbDimension
 10
541.1109819556038474
 20
10.2317147453484196
 30
0.0
 11
531.2276785325022956
 21
12.1067147453484196
 31
0.0
 70
0
 71
5
 72
0
 41
1.0
 42
0.0
  1

  3
Standard
100
AcDbAlignedDimension
 13
521.3443751094008576
 23
19.2655847490172789
 33
0.0
 14
541.1109819556038474
 24
17.7315883815515321
 34
0.0
 50
0.0
100
AcDbRotatedDimension
  0
DIMENSION
  5
7C
100
AcDbEntity
  8
quote
 62
256
370
-1
  6
ByLayer
100
AcDbDimension
 10
560.4697376862303599
 20
11.2709910890130907
 30
0.0
 11
550.7903598209170468
 21
13.1459910890130907
 31
0.0
 70
0
 71
5
 72
0
 41
1.0
 42
0.0
  1

  3
Standard
100
AcDbAlignedDimension
 13
541.1109819556038474
 23
17.7315883815515321
 33
0.0
 14
560.4697376862303599
 24
16.1301027306650973
 34
0.0
 50
0.0
100
AcDbRotatedDimension
  0
DIMENSION
  5
7D
100
AcDbEntity
  8
quote
 62
256
370
-1
  6
ByLayer
100
AcDbDimension
 10
580.2348450465290171
 20
6.5861402946181116
 30
0.0
 11
570.4453932530998372
 21
8.4611402946181116
 31
0.0
 70
0
 71
5
 72
0
 41
1.0
 42
0.0
  1

  3
Standard
100
AcDbAlignedDimension
 13
560.6559414596706574
 23
16.1151804770444436
 33
0.0
 14
580.2348450465290171
 24
14.5461394230453358
 34
0.0
 50
0.0
100
AcDbRotatedDimension
  0
LINE
  5
7E
100
AcDbEntity
100
AcDbLine
  8
0
 62
256
370
-1
  6
ByLayer
 10
495.0
 20
35.0
 30
0.0
 11
495.0
 21
30.0
 31
0.0
  0
LINE
  5
7F
100
AcDbEntity
100
AcDbLine
  8
0
 62
256
370
-1
  6
ByLayer
 10
495.0
 20
20.0
 30
0.0
 11
389.0
 21
20.0
 31
0.0
  0
LINE
  5
80
100
AcDbEntity
100
AcDbLine
  8
0
 62
256
370
-1
  6
ByLayer
 10
495.0
 20
20.0
 30
0.0
 11
495.0
 21
0.0
 31
0.0
  0
LINE
  5
81
100
AcDbEntity
100
AcDbLine
  8
0
 62
256
370
-1
  6
ByLayer
 10
436.5
 20
35.0
 30
0.0
 11
495.0
 21
30.0
 31
0.0
  0
LINE
  5
82
100
AcDbEntity
100
AcDbLine
  8
0
 62
256
370
-1
  6
ByLayer
 10
436.5
 20
35.0
 30
0.0
 11
0.0
 21
35.0
 31
0.0
  0
ARC
  5
83
100
AcDbEntity
  8
0
 62
256
370
-1
  6
ByLayer
100
AcDbCircle
 10
597.8321385346279158
 20
50.0848921795058999
 30
0.0
 40
50.37479151996002
100
AcDbArc
 50
276.1498299619154295
 51
327.2282366116372714
  0
LINE
  5
84
100
AcDbEntity
100
AcDbLine
  8
0
 62
256
370
-1
  6
ByLayer
 10
515.0
 20
0.0
 30
0.0
 11
525.0930787708883827
 21
5.4761580170848321
 31
0.0
  0
LINE
  5
85
100
AcDbEntity
100
AcDbLine
  8
0
 62
256
370
-1
  6
ByLayer
 10
525.0930787708883827
 20
5.4761580170848321
 30
0.0
 11
603.2287296852225609
 21
-0.0000000000002801
 31
0.0
  0
LINE
  5
86
100
AcDbEntity
100
AcDbLine
  8
0
 62
256
370
-1
  6
ByLayer
 10
389.0
 20
20.0
 30
0.0
 11
389.0
 21
0.0
 31
0.0
  0
LINE
  5
87
100
AcDbEntity
100
AcDbLine
  8
0
 62
256
370
-1
  6
ByLayer
 10
495.0
 20
0.0
 30
0.0
 11
515.0
 21
0.0
 31
0.0
  0
LINE
  5
88
100
AcDbEntity
100
AcDbLine
  8
0
 62
256
370
-1
  6
ByLayer
 10
389.0
 20
0.0
 30
0.0
 11
369.5
 21
0.0
 31
0.0
  0
LINE
  5
89
100
AcDbEntity
100
AcDbLine
  8
0
 62
256
370
-1
  6
ByLayer
 10
369.5
 20
0.0
 30
0.0
 11
350.0
 21
15.0
 31
0.0
  0
LINE
  5
8A
100
AcDbEntity
100
AcDbLine
  8
rettangolo
 62
256
370
-1
  6
ByLayer
 10
640.0
 20
40.0
 30
0.0
 11
0.0
 21
40.0
 31
0.0
  0
LINE
  5
8B
100
AcDbEntity
100
AcDbLine
  8
rettangolo
 62
256
370
-1
  6
ByLayer
 10
0.0
 20
40.0
 30
0.0
 11
0.0
 21
0.0
 31
0.0
  0
LINE
  5
8C
100
AcDbEntity
100
AcDbLine
  8
rettangolo
 62
256
370
-1
  6
ByLayer
 10
0.0
 20
0.0
 30
0.0
 11
640.0
 21
0.0
 31
0.0
  0
LINE
  5
8D
100
AcDbEntity
100
AcDbLine
  8
rettangolo
 62
256
370
-1
  6
ByLayer
 10
640.0
 20
0.0
 30
0.0
 11
640.0
 21
40.0
 31
0.0
  0
LINE
  5
8E
100
AcDbEntity
100
AcDbLine
  8
rettangolo
 62
256
370
-1
  6
ByLayer
 10
0.0
 20
35.0
 30
0.0
 11
-0.0000000000000001
 21
14.375
 31
0.0
  0
LINE
  5
8F
100
AcDbEntity
100
AcDbLine
  8
0
 62
256
370
-1
  6
ByLayer
 10
549.2274463034788141
 20
-20.4594489752698507
 30
0.0
 11
649.2274463034788141
 21
-20.4594489752698507
 31
0.0
  0
LINE
  5
90
100
AcDbEntity
100
AcDbLine
  8
0
 62
256
370
-1
  6
ByLayer
 10
649.2274463034788141
 20
-20.4594489752698507
 30
0.0
 11
649.2274463034788141
 21
-55.4594489752698507
 31
0.0
  0
LINE
  5
91
100
AcDbEntity
100
AcDbLine
  8
0
 62
256
370
-1
  6
ByLayer
 10
469.2274463034788141
 20
-50.4594489752698507
 30
0.0
 11
469.2274463034788141
 21
-69.8344489752698507
 31
0.0
  0
LINE
  5
92
100
AcDbEntity
100
AcDbLine
  8
0
 62
256
370
-1
  6
ByLayer
 10
469.2274463034788141
 20
-69.8344489752698507
 30
0.0
 11
539.2274463034788141
 21
-70.4594489752698507
 31
0.0
  0
LINE
  5
93
100
AcDbEntity
100
AcDbLine
  8
rettangolo
 62
256
370
-1
  6
ByLayer
 10
470.0
 20
-20.0
 30
0.0
 11
650.0
 21
-20.0
 31
0.0
  0
LINE
  5
94
100
AcDbEntity
100
AcDbLine
  8
rettangolo
 62
256
370
-1
  6
ByLayer
 10
650.0
 20
-20.0
 30
0.0
 11
650.0
 21
-70.0
 31
0.0
  0
LINE
  5
95
100
AcDbEntity
100
AcDbLine
  8
rettangolo
 62
256
370
-1
  6
ByLayer
 10
650.0
 20
-70.0
 30
0.0
 11
470.0
 21
-70.0
 31
0.0
  0
LINE
  5
96
100
AcDbEntity
100
AcDbLine
  8
rettangolo
 62
256
370
-1
  6
ByLayer
 10
470.0
 20
-70.0
 30
0.0
 11
470.0
 21
-20.0
 31
0.0
  0
LINE
  5
97
100
AcDbEntity
100
AcDbLine
  8
rettangolo
 62
256
370
-1
  6
ByLayer
 10
370.3181003999578706
 20
-73.9873425434170855
 30
0.0
 11
640.470100975734681
 21
-73.9873425434170855
 31
0.0
  0
LINE
  5
98
100
AcDbEntity
100
AcDbLine
  8
rettangolo
 62
256
370
-1
  6
ByLayer
 10
640.470100975734681
 20
-73.9873425434170855
 30
0.0
 11
640.470100975734681
 21
-116.2758219033327975
 31
0.0
  0
LINE
  5
99
100
AcDbEntity
100
AcDbLine
  8
rettangolo
 62
256
370
-1
  6
ByLayer
 10
640.470100975734681
 20
-116.2758219033327975
 30
0.0
 11
370.3181003999578706
 21
-116.2758219033327975
 31
0.0
  0
LINE
  5
9A
100
AcDbEntity
100
AcDbLine
  8
rettangolo
 62
256
370
-1
  6
ByLayer
 10
370.3181003999578706
 20
-116.2758219033327975
 30
0.0
 11
370.3181003999578706
 21
-73.9873425434170855
 31
0.0
  0
ENDSEC
  0
SECTION
  2
OBJECTS
  0
DICTIONARY
  5
C
100
AcDbDictionary
280
0
281
1
  3
ACAD_GROUP
350
D
  3
ACAD_LAYOUT
350
1A
  3
ACAD_MLINESTYLE
350
17
  3
ACAD_PLOTSETTINGS
350
19
  3
ACAD_PLOTSTYLENAME
350
E
  3
AcDbVariableDictionary
350
9B
  0
DICTIONARY
  5
D
100
AcDbDictionary
280
0
281
1
  0
ACDBDICTIONARYWDFLT
  5
E
100
AcDbDictionary
281
1
  3
Normal
350
F
100
AcDbDictionaryWithDefault
340
F
  0
ACDBPLACEHOLDER
  5
F
  0
DICTIONARY
  5
17
100
AcDbDictionary
280
0
281
1
  3
Standard
350
18
  0
MLINESTYLE
  5
18
100
AcDbMlineStyle
  2
STANDARD
 70
0
  3

 62
256
 51
90.0
 52
90.0
 71
2
 49
0.5
 62
256
  6
BYLAYER
 49
-0.5
 62
256
  6
BYLAYER
  0
DICTIONARY
  5
19
100
AcDbDictionary
280
0
281
1
  0
DICTIONARY
  5
1A
100
AcDbDictionary
281
1
  3
Layout1
350
1E
  3
Layout2
350
26
  3
Model
350
22
  0
LAYOUT
  5
1E
100
AcDbPlotSettings
  1

  2
C:\Program Files\AutoCAD 2002\plotters\DWF ePlot (optimized for plotting).pc3
  4

  6

 40
0.0
 41
0.0
 42
0.0
 43
0.0
 44
0.0
 45
0.0
 46
0.0
 47
0.0
 48
0.0
 49
0.0
140
0.0
141
0.0
142
1.0
143
1.0
 70
688
 72
0
 73
0
 74
5
  7

 75
16
147
1.0
148
0.0
149
0.0
100
AcDbLayout
  1
Layout1
 70
1
 71
1
 10
0.0
 20
0.0
 11
420.0
 21
297.0
 12
0.0
 22
0.0
 32
0.0
 14
100000000000000000000.0
 24
100000000000000000000.0
 34
100000000000000000000.0
 15
-100000000000000000000.0
 25
-100000000000000000000.0
 35
-100000000000000000000.0
146
0.0
 13
0.0
 23
0.0
 33
0.0
 16
1.0
 26
0.0
 36
0.0
 17
0.0
 27
1.0
 37
0.0
 76
0
330
1B
  0
LAYOUT
  5
22
100
AcDbPlotSettings
  1

  2
C:\Program Files\AutoCAD 2002\plotters\DWF ePlot (optimized for plotting).pc3
  4

  6

 40
0.0
 41
0.0
 42
0.0
 43
0.0
 44
0.0
 45
0.0
 46
0.0
 47
0.0
 48
0.0
 49
0.0
140
0.0
141
0.0
142
1.0
143
1.0
 70
1712
 72
0
 73
0
 74
0
  7

 75
0
147
1.0
148
0.0
149
0.0
100
AcDbLayout
  1
Model
 70
1
 71
0
 10
0.0
 20
0.0
 11
12.0
 21
9.0
 12
0.0
 22
0.0
 32
0.0
 14
0.0
 24
0.0
 34
0.0
 15
0.0
 25
0.0
 35
0.0
146
0.0
 13
0.0
 23
0.0
 33
0.0
 16
1.0
 26
0.0
 36
0.0
 17
0.0
 27
1.0
 37
0.0
 76
0
330
1F
  0
LAYOUT
  5
26
100
AcDbPlotSettings
  1

  2
C:\Program Files\AutoCAD 2002\plotters\DWF ePlot (optimized for plotting).pc3
  4

  6

 40
0.0
 41
0.0
 42
0.0
 43
0.0
 44
0.0
 45
0.0
 46
0.0
 47
0.0
 48
0.0
 49
0.0
140
0.0
141
0.0
142
1.0
143
1.0
 70
688
 72
0
 73
0
 74
5
  7

 75
16
147
1.0
148
0.0
149
0.0
100
AcDbLayout
  1
Layout2
 70
1
 71
2
 10
0.0
 20
0.0
 11
12.0
 21
9.0
 12
0.0
 22
0.0
 32
0.0
 14
0.0
 24
0.0
 34
0.0
 15
0.0
 25
0.0
 35
0.0
146
0.0
 13
0.0
 23
0.0
 33
0.0
 16
1.0
 26
0.0
 36
0.0
 17
0.0
 27
1.0
 37
0.0
 76
0
330
23
  0
DICTIONARY
  5
9B
100
AcDbDictionary
281
1
  3
DIMASSOC
350
9D
  3
HIDETEXT
350
9C
  0
DICTIONARYVAR
  5
9C
100
DictionaryVariables
280
0
  1
2
  0
DICTIONARYVAR
  5
9D
100
DictionaryVariables
280
0
  1
1
  0
ENDSEC
  0
EOF
