<?xml version="1.0" encoding="UTF-8" standalone="no"?>
<!-- Created with Inkscape (http://www.inkscape.org/) -->

<svg
   xmlns:dc="http://purl.org/dc/elements/1.1/"
   xmlns:cc="http://creativecommons.org/ns#"
   xmlns:rdf="http://www.w3.org/1999/02/22-rdf-syntax-ns#"
   xmlns:svg="http://www.w3.org/2000/svg"
   xmlns="http://www.w3.org/2000/svg"
   xmlns:sodipodi="http://sodipodi.sourceforge.net/DTD/sodipodi-0.dtd"
   xmlns:inkscape="http://www.inkscape.org/namespaces/inkscape"
   version="1.1"
   width="312.74448"
   height="230.15625"
   id="svg2"
   inkscape:version="0.48.3.1 r9886"
   sodipodi:docname="PonteBarocco.svg">
  <sodipodi:namedview
     pagecolor="#ffffff"
     bordercolor="#666666"
     borderopacity="1"
     objecttolerance="10"
     gridtolerance="10"
     guidetolerance="10"
     inkscape:pageopacity="0"
     inkscape:pageshadow="2"
     inkscape:window-width="1366"
     inkscape:window-height="720"
     id="namedview6"
     showgrid="false"
     inkscape:zoom="4.0160581"
     inkscape:cx="149.33122"
     inkscape:cy="126.90995"
     inkscape:window-x="0"
     inkscape:window-y="0"
     inkscape:window-maximized="1"
     inkscape:current-layer="svg2" />
  <metadata
     id="metadata8">
    <rdf:RDF>
      <cc:Work
         rdf:about="">
        <dc:format>image/svg+xml</dc:format>
        <dc:type
           rdf:resource="http://purl.org/dc/dcmitype/StillImage" />
        <dc:title />
      </cc:Work>
    </rdf:RDF>
  </metadata>
  <defs
     id="defs6" />
  <path
     d="m 158.49742,63.668041 c -9.18241,0.0018 -50.42129,0.951732 -72.096242,16.073791 0.576079,27.651778 1.147117,38.605418 1.147117,38.605418 0,0 6.919183,1.7208 11.527811,-7.20842 8.641174,6.91294 15.833034,0.86388 15.833034,0.86388 0,0 -16.989512,-12.385449 -0.28323,-17.858194 13.82588,4.032552 6.33038,15.563964 6.33038,15.563964 0,0 -5.75791,9.78997 -10.36653,12.09428 -8.64118,-1.15215 -11.513654,9.7859 -11.513654,9.7859 0,0 -6.43671,-7.10866 -10.380695,-2.011 -5.501677,11.42663 6.925184,10.0833 6.925184,10.0833 0,0 -7.350155,7.89921 -8.355539,12.09429 -2.154219,8.98871 -0.297881,11.23905 1.430355,14.11944 4.608628,-0.86412 37.160909,-6.34454 37.160909,-6.34454 0,0 -9.78614,-5.76271 -8.92202,-10.0833 0.91086,-4.5543 3.83348,-9.77462 7.7749,-8.34137 3.16843,1.15215 23.6131,8.05253 31.65191,-3.54049 8.03881,12.02621 28.49765,5.1175 31.66608,3.96534 3.94142,-1.43324 6.86404,3.80124 7.7749,8.35554 0.86412,4.32059 -8.93618,10.0833 -8.93618,10.0833 0,0 32.55228,5.46626 37.16091,6.33038 1.72823,-2.88039 3.59873,-5.11657 1.44452,-14.10528 -1.00539,-4.19508 -8.35554,-12.10845 -8.35554,-12.10845 0,0 12.41269,1.35749 6.91102,-10.06914 -3.94398,-5.09766 -10.36654,2.011 -10.36654,2.011 0,0 -2.88662,-10.95221 -11.52781,-9.80006 -4.60862,-2.30431 -10.36653,-12.09429 -10.36653,-12.09429 0,0 -7.48134,-11.517243 6.34455,-15.549795 16.70627,5.472745 -0.29741,17.858195 -0.29741,17.858195 0,0 7.20603,6.04906 15.8472,-0.86388 4.60863,8.92922 11.51365,7.19426 11.51365,7.19426 0,0 0.5852,-10.93948 1.16128,-38.591258 C 203.29517,64.186469 167.99533,63.638453 158.49742,63.668041 z m -1.37156,42.995619 c 2.64479,9.24277 9.93255,15.68542 15.1391,20.29405 -6.68368,0.25388 -8.49464,2.60584 -8.93618,-3.75291 -2.97518,-3.45647 -3.82495,-1.52501 -5.91488,-1.56742 -2.08994,-0.0424 -3.52995,-2.14397 -6.50513,1.3125 -0.44153,6.35876 -2.23833,4.0068 -8.92202,3.75291 5.20656,-4.60862 12.49432,-10.84738 15.13911,-20.03913 z"
     id="path3068-3"
     style="fill:#000000;stroke:none;stroke-width:3.50000000000000000;stroke-linecap:butt;stroke-linejoin:miter;stroke-miterlimit:4;stroke-opacity:1;stroke-dasharray:none"
     inkscape:connector-curvature="0"
     sodipodi:nodetypes="cccccccccccsccsscssccsccccccccccccccsccc" />
</svg>
